<?xml version="1.0" encoding="utf-8"?>
<!-- Generator: Adobe Illustrator 26.5.3, SVG Export Plug-In . SVG Version: 6.00 Build 0)  -->
<svg version="1.1" id="レイヤー_1" xmlns="http://www.w3.org/2000/svg" xmlns:xlink="http://www.w3.org/1999/xlink" x="0px"
	 y="0px" viewBox="0 0 23.2 22.6" style="enable-background:new 0 0 23.2 22.6;" xml:space="preserve">
<style type="text/css">
	.st0{fill:#A61F24;}
	.st1{fill:#FFFFFF;}
</style>
<g>
	<path class="st0" d="M4.1,0h15c2.2,0,4.1,1.9,4.1,4.1v14.4c0,2.3-1.9,4.1-4.1,4.1h-15c-2.2,0-4.1-1.8-4.1-4.1V4.1
		C0,1.9,1.9,0,4.1,0z"/>
	<path class="st1" d="M18.7,13.1c-0.5-0.5-1.4-0.7-2.6-0.7c-0.7,0-1.4,0.1-2.1,0.2c-0.5-0.4-0.9-0.9-1.2-1.4
		c-0.3-0.4-0.5-0.8-0.8-1.2c0.4-1.1,0.6-2.2,0.7-3.4c0-1-0.4-2.2-1.6-2.2c-0.4,0-0.8,0.2-1,0.6c-0.5,0.9-0.3,2.6,0.5,4.4
		c-0.3,0.8-0.6,1.6-0.9,2.5c-0.3,0.8-0.7,1.5-1.1,2.2c-1.2,0.5-3.7,1.6-3.9,2.9c-0.1,0.4,0,0.8,0.3,1c0.3,0.2,0.7,0.4,1,0.3
		c1.5,0,3-2.1,4.1-3.9c0.6-0.2,1.2-0.4,1.8-0.5c0.7-0.2,1.3-0.3,1.9-0.4c1.6,1.4,3.1,1.6,3.8,1.6c1,0,1.4-0.4,1.5-0.8
		C19,13.9,19,13.4,18.7,13.1z M17.6,13.9c0,0.3-0.3,0.5-0.7,0.5c-0.1,0-0.2,0-0.3,0c-0.8-0.2-1.5-0.6-2.1-1.1c0.5-0.1,1-0.1,1.5-0.1
		c0.3,0,0.7,0,1,0.1C17.3,13.2,17.7,13.4,17.6,13.9z M10.7,5.3c0.1-0.1,0.2-0.2,0.3-0.2c0.4,0,0.5,0.4,0.5,0.8
		c0,0.9-0.2,1.7-0.5,2.6C10.4,6.8,10.5,5.7,10.7,5.3z M12.9,12.7c-0.4,0.1-0.9,0.2-1.3,0.3c-0.3,0.1-0.6,0.2-1,0.3
		c0.2-0.3,0.3-0.7,0.5-1c0.2-0.4,0.3-0.9,0.5-1.3c0.2,0.2,0.3,0.4,0.4,0.6C12.3,12,12.6,12.4,12.9,12.7z M8.2,15
		c-1,1.5-1.9,2.6-2.5,2.6c-0.1,0-0.2,0-0.2-0.1c-0.1-0.1-0.2-0.2-0.1-0.3C5.4,16.5,6.5,15.7,8.2,15z"/>
</g>
</svg>
