<?xml version="1.0" encoding="utf-8"?>
<!-- Generator: Adobe Illustrator 26.5.3, SVG Export Plug-In . SVG Version: 6.00 Build 0)  -->
<svg version="1.1" id="レイヤー_1" xmlns="http://www.w3.org/2000/svg" xmlns:xlink="http://www.w3.org/1999/xlink" x="0px"
	 y="0px" viewBox="0 0 165.4 26" style="enable-background:new 0 0 165.4 26;" xml:space="preserve">
<style type="text/css">
	.st0{fill:#E20012;}
</style>
<g>
	<g>
		<path class="st0" d="M47,17.8c-2.2,0-3.3,1.4-3.3,3.2c0,1.6,1.3,3.1,3.4,3.1c2.1,0,3.3-1.5,3.3-3.1C50.3,19.1,49.1,17.8,47,17.8z
			 M47,22.9c-0.7,0-1.1-1-1.1-2c0-1.2,0.4-2.1,1.1-2.1c0.7,0,1.1,0.9,1.1,2.1C48.1,21.9,47.7,22.9,47,22.9z"/>
		<path class="st0" d="M35.9,21.1c0-0.1,0-0.1,0-0.2c0-1.8-1.2-3.2-3.4-3.2c-2.2,0-3.4,1.4-3.4,3.2c0,1.6,1.3,3.1,3.4,3.1
			c1.5,0,2.7-0.7,3-1.8h-2.2c-0.1,0.5-0.5,0.7-0.9,0.7c-0.7,0-1.1-0.9-1.1-1.9h2.2H35.9z M32.6,18.8c0.6,0,0.9,0.5,1.1,1.3h-2.1
			C31.7,19.3,32,18.8,32.6,18.8z"/>
		<path class="st0" d="M91.8,21.1c0-0.1,0-0.1,0-0.2c0-1.8-1.2-3.2-3.4-3.2c-2.2,0-3.4,1.4-3.4,3.2c0,1.6,1.3,3.1,3.4,3.1
			c1.5,0,2.7-0.7,3-1.8h-2.2c-0.1,0.5-0.5,0.7-0.9,0.7c-0.7,0-1.1-0.9-1.1-1.9h2.2H91.8z M88.5,18.8c0.6,0,0.9,0.5,1.1,1.3h-2.1
			C87.5,19.3,87.9,18.8,88.5,18.8z"/>
		<path class="st0" d="M57,17.8c-0.6-0.1-1.8-0.1-2.9,1v-1.1l-2.5,0.2v5.9h2.5v-3c0-0.8,0.5-1.2,0.9-1.2c0.3,0,0.6,0.2,0.6,0.7v3.6
			h2.5v-4c0-0.1,0-0.3,0-0.4C58.2,18.3,57.5,17.9,57,17.8z"/>
		<path class="st0" d="M82.6,17.8c-0.6-0.1-1.8-0.1-2.9,1v-3.1l-2.5,0.2v8h2.5v-3.7v0.7c0-0.8,0.5-1.2,0.9-1.2
			c0.3,0,0.6,0.2,0.6,0.7v3.6h2.5v-4c0-0.1,0-0.3,0-0.4C83.7,18.3,83.1,17.9,82.6,17.8z"/>
		<path class="st0" d="M41.8,17.9c0,0-0.7,1.5-1.4,3l-1.1-3h-2.8l2.5,5.9c-0.1,0.3-0.2,0.4-0.2,0.5c-0.4,0.9-1.3,0.3-1.4,0.3v1.3
			c0.2,0.1,0.5,0.1,0.7,0.1c0.7,0,1.3-0.3,1.8-1.2c0.5-1.1,3.3-6.9,3.3-6.9H41.8z"/>
		<path class="st0" d="M63.5,15.9v2.5c-0.2-0.3-0.6-0.5-0.9-0.6c-1.6-0.3-3,0.5-3,3.2c0,2.2,1.1,3.1,2.3,3.1c0.7,0,1.2-0.3,1.6-0.6
			v0.5H66v-8.2L63.5,15.9z M62.9,22.5c-0.6,0-1-0.6-1-1.6c0-1.2,0.3-1.9,1.1-1.8c0.4,0.1,0.6,0.5,0.6,1c0,0,0,0.9,0,1.4
			C63.5,22.1,63.3,22.5,62.9,22.5z"/>
		<path class="st0" d="M75.7,18.8v-1h-1.1V16c-0.5,0.3-1.8,0.8-2.5,0.9c0,0,0,0.4,0,0.9h-0.8v1h0.8c0,1.4,0,3.1,0,3.5
			c0,1.3,0.8,1.6,1.3,1.7c1.1,0.1,1.8-0.1,2.1-0.2v-0.9c0,0-0.8,0.3-0.8-0.4l0,0v-3.6H75.7z"/>
		<path class="st0" d="M100.2,18.8c-1.1-0.3-1.5-0.5-1.5-1c0-0.5,0.3-0.9,1.2-0.9c1.2,0,1.8,0.3,1.8,1.5h2.3c0-1.6-1.3-2.8-3.9-2.8
			c-2.5,0-3.9,0.9-3.9,2.3c0,1.5,1.2,1.9,3.9,2.7c1.1,0.3,1.4,0.4,1.5,1c0.1,0.7-0.3,1.1-1.4,1.1c-1.1,0-1.7-0.4-1.8-1.8h-2.3
			c0,1.8,1.3,3.1,4,3.1c3,0,4.3-1.1,4.3-2.5C104.2,20,103.1,19.6,100.2,18.8z"/>
		<polygon class="st0" points="144.9,23.8 142.4,23.8 142.4,15.9 144.9,15.7 		"/>
		<path class="st0" d="M120.1,21.1c0-0.1,0-0.1,0-0.2c0-1.8-1.2-3.1-3.4-3.1c-2.2,0-3.3,1.4-3.3,3.1c0,1.5,1.3,3.1,3.4,3.1
			c1.5,0,2.7-0.7,3-1.8h-2.2c-0.1,0.5-0.5,0.7-0.9,0.7c-0.7,0-1.1-0.9-1.1-1.9h2.2H120.1z M116.7,18.8c0.6,0,0.9,0.5,1,1.3h-2.1
			C115.8,19.3,116.2,18.8,116.7,18.8z"/>
		<path class="st0" d="M109.3,17.8c-0.3,0.1-0.7,0.3-0.9,0.6v-0.6l-2.5,0.2v8h2.5v-2.5c0.4,0.3,0.9,0.6,1.6,0.6
			c1.3,0,2.3-0.8,2.3-3.1C112.2,18.3,110.8,17.4,109.3,17.8z M109,22.5c-0.4,0-0.6-0.4-0.6-0.6v-2.1c0.1-0.2,0.2-0.7,0.6-0.8
			c0.7-0.2,1.1,0.6,1.1,1.8C110,21.9,109.6,22.5,109,22.5z"/>
		<path class="st0" d="M125.8,21.5c-0.2,0.8-0.4,1.4-1.1,1.4c-0.9,0-1.2-1-1.2-2c0-1.2,0.3-2.1,1.1-2.1c0.7,0,0.9,0.5,1,1.3h2.2
			c-0.2-1.3-1.5-2.3-3.3-2.3c-2.2,0-3.4,1.4-3.4,3.1c0,1.5,1.3,3.1,3.4,3.1c1.8,0,3.1-1.1,3.3-2.4H125.8z"/>
		<polygon class="st0" points="129.8,18.1 129.8,23.8 132.3,23.8 132.3,17.9 		"/>
		<path class="st0" d="M130.9,17.3c0.7,0,1.2-0.4,1.2-1c0-0.5-0.5-1-1.2-1c-0.7,0-1.2,0.4-1.2,1C129.8,16.9,130.2,17.3,130.9,17.3z"
			/>
		<path class="st0" d="M140.3,22.4c0-0.4,0-1.9,0-2.5c0-1.2,0.1-1.8-1.7-2.1c-1.6-0.3-4.3-0.1-4.3,2h1.9c0.1-0.8,0.5-0.9,1-0.9
			c0.5,0,1,0.3,0.9,0.9c-0.1,0.6-2.9,0.6-3.7,1.7c-0.9,1.1,0.1,2.6,1.8,2.6c0.9,0,1.7-0.3,2.1-0.6c0.2,0.3,0.5,0.5,1,0.6
			c1.1,0.2,2-0.2,2-0.2v-0.9C141.1,22.8,140.3,23.1,140.3,22.4z M137,22.8c-0.5,0-0.9-0.3-0.9-0.7c0.1-0.9,1.5-0.6,1.9-1.1
			c0,0.5,0,1.1,0,1.2C138,22.4,137.4,22.8,137,22.8z"/>
		<path class="st0" d="M26.3,19.7c0.9-0.3,1.4-0.9,1.4-1.8c0-1.2-0.7-2.1-3.3-2.1h-1.3h0h-2.6v8.1h2.6h0h1.3c2.9,0,3.7-0.9,3.7-2.2
			C28.1,20.6,27.5,20,26.3,19.7z M23.5,16.8c1.3,0,1.8,0.4,1.8,1.2c0,1-0.5,1.3-1.2,1.3h-1v-2.5H23.5z M23.9,22.8h-0.9v-2.6l0.8,0
			c1.5,0,1.9,0.5,1.9,1.3C25.7,22.4,25.2,22.8,23.9,22.8z"/>
	</g>
	<g>
		<rect x="22.5" y="0.3" width="3.2" height="9.7"/>
		<path d="M33.4,0.3h-5.3v9.7h5.7c2.7,0,4.2-2.3,4.2-4.8C37.9,2.4,36.9,0.3,33.4,0.3z M32.5,8.5h-1.3V1.7h1.4c1.7,0,2.2,1.6,2.2,3.4
			C34.9,6.7,34.5,8.5,32.5,8.5z"/>
		<path d="M5.3,0.3H0v9.7h5.7c2.7,0,4.2-2.3,4.2-4.8C9.8,2.4,8.9,0.3,5.3,0.3z M4.5,8.5H3.2V1.7h1.4c1.7,0,2.2,1.6,2.2,3.4
			C6.8,6.7,6.4,8.5,4.5,8.5z"/>
		<path d="M44.5,0.1c-3.2,0-5,2.2-5,5.1c0,2.5,1.9,5,5,5c3.1,0,4.9-2.4,4.9-5C49.5,2.3,47.8,0.1,44.5,0.1z M44.6,8.4
			c-1.3,0-2.1-1.6-2.1-3.3c0-1.9,0.7-3.4,2-3.4s2,1.5,2,3.4C46.6,6.8,45.8,8.4,44.6,8.4z"/>
		<path d="M161.4,0.3h-4.6v9.7h3.2V6.1h1.4c3,0,4.1-1.2,4.1-2.8C165.4,1.8,164.4,0.3,161.4,0.3z M160.8,4.8H160V1.5h0.6
			c1.5,0,2.2,0.5,2.2,1.6C162.8,4.1,162.6,4.8,160.8,4.8z"/>
		<polygon points="74.9,0.3 65.7,0.3 65.7,1.6 68.6,1.6 68.6,9.9 71.8,9.9 71.8,1.6 74.9,1.6 		"/>
		<polygon points="85.5,1.6 85.5,0.3 76.7,0.3 76.7,9.9 79.8,9.9 85.5,9.9 85.5,8.6 79.8,8.6 79.8,5.8 84.3,5.8 84.3,4.5 79.8,4.5 
			79.8,1.6 		"/>
		<polygon points="101.2,8.6 101.2,0.3 98.1,0.3 98.1,9.9 106.5,9.9 106.5,8.6 		"/>
		<polygon points="96.2,1.6 96.2,0.3 87.4,0.3 87.4,9.9 96.2,9.9 96.2,8.6 90.5,8.6 90.5,5.8 95,5.8 95,4.5 90.5,4.5 90.5,1.6 		"/>
		<path d="M60.1,3.9c-1.3-0.3-1.8-0.6-1.8-1.3c0-0.6,0.4-1.1,1.4-1c1.4,0,2.2,0.4,2.1,1.8h2.7C64.6,1.5,63,0,59.9,0
			c-2.9,0-4.7,1.1-4.7,2.7c0,1.7,1.4,2.3,4.7,3.2c1.3,0.4,1.7,0.5,1.7,1.2c0.1,0.8-0.4,1.4-1.7,1.4c-1.4,0-2.1-0.5-2.1-2.2h-2.8
			c0,2.2,1.5,3.7,4.8,3.7c3.6,0,5.1-1.3,5.1-3C64.9,5.2,63.6,4.8,60.1,3.9z"/>
		<path d="M131.7,7.4c-0.1-1.1-0.3-1.9-1.8-2.2c1.5-0.4,2.1-1.4,2.1-2.3c0-1.5-1-2.6-4.2-2.6h-4.4v9.7h3.2V5.7c1.5,0,1.9,0.1,2,1.8
			c0,0.8,0.1,1.8,0.3,2.4h3.4C132,9.5,131.8,8.6,131.7,7.4z M126.9,4.6h-0.3v-3h0.8c1.3,0,2,0.7,2,1.5
			C129.4,3.8,128.9,4.6,126.9,4.6z"/>
		<path d="M121.1,5.1L121.1,5.1h-4.9v1.3h2c-0.2,1.3-0.9,2-2,2c-1.3,0-2.1-1.6-2.1-3.3c0-1.9,0.7-3.4,2-3.4c1,0,1.4,0.8,1.5,2.1h3.3
			c-0.3-2.2-2.1-3.8-4.8-3.8c-3.2,0-5,2.2-5,5.1c0,2.5,1.9,5,5,5c1.2,0,2.3-0.3,3.4-0.9l0.3,0.6h1.1V5.1z"/>
		<path d="M17.5,9.9h3.3L17,0.3h-1h-1.8l-3.7,9.7h1.8l0.7-1.7h3.8L17.5,9.9z M13.5,6.8l1.3-3.5l1.4,3.5H13.5z"/>
		<path d="M138.7,0.1c-3.2,0-5,2.2-5,5.1c0,2.5,1.9,5,5,5c3.1,0,4.9-2.4,4.9-5C143.7,2.3,141.9,0.1,138.7,0.1z M138.7,8.4
			c-1.3,0-2.1-1.6-2.1-3.3c0-1.9,0.7-3.4,2-3.4c1.3,0,2,1.5,2,3.4C140.7,6.8,140,8.4,138.7,8.4z"/>
		<path d="M151.5,0.3v5.9c0,1.3-0.1,2.5-1.3,2.5c-1.2,0-1.3-1.2-1.3-2.5V0.3h-3.2v6.2c0,2,1.4,3.6,4.5,3.6c3.1,0,4.5-1.6,4.5-3.6
			V0.3H151.5z"/>
	</g>
</g>
</svg>
