<!--?xml version="1.0" encoding="utf-8"?-->
<!-- Generator: Adobe Illustrator 26.5.3, SVG Export Plug-In . SVG Version: 6.00 Build 0)  -->
<svg version="1.1" id="レイヤー_1" xmlns="http://www.w3.org/2000/svg" xmlns:xlink="http://www.w3.org/1999/xlink" x="0px" y="0px" viewBox="0 0 219.9 244.2" style="enable-background:new 0 0 219.9 244.2;" xml:space="preserve" width="219.89999389648438" height="244.1999969482422">
<style type="text/css">
	.st0{fill:#008BD5;}
/***************************************************
 * Generated by SVG Artista on 9/16/2025, 4:55:11 PM
 * MIT license (https://opensource.org/licenses/MIT)
 * W. https://svgartista.net
 **************************************************/

@-webkit-keyframes animate-svg-fill-1 {
  0% {
    fill: transparent;
  }

  100% {
    fill: rgb(0, 139, 213);
  }
}

@keyframes animate-svg-fill-1 {
  0% {
    fill: transparent;
  }

  100% {
    fill: rgb(0, 139, 213);
  }
}

.svg-elem-1 {
  -webkit-animation: animate-svg-fill-1 0.7s cubic-bezier(0.47, 0, 0.745, 0.715) 0.8s both;
          animation: animate-svg-fill-1 0.7s cubic-bezier(0.47, 0, 0.745, 0.715) 0.8s both;
}

@-webkit-keyframes animate-svg-fill-2 {
  0% {
    fill: transparent;
  }

  100% {
    fill: rgb(0, 139, 213);
  }
}

@keyframes animate-svg-fill-2 {
  0% {
    fill: transparent;
  }

  100% {
    fill: rgb(0, 139, 213);
  }
}

.svg-elem-2 {
  -webkit-animation: animate-svg-fill-2 0.7s cubic-bezier(0.47, 0, 0.745, 0.715) 0.9s both;
          animation: animate-svg-fill-2 0.7s cubic-bezier(0.47, 0, 0.745, 0.715) 0.9s both;
}

@-webkit-keyframes animate-svg-fill-3 {
  0% {
    fill: transparent;
  }

  100% {
    fill: rgb(0, 139, 213);
  }
}

@keyframes animate-svg-fill-3 {
  0% {
    fill: transparent;
  }

  100% {
    fill: rgb(0, 139, 213);
  }
}

.svg-elem-3 {
  -webkit-animation: animate-svg-fill-3 0.7s cubic-bezier(0.47, 0, 0.745, 0.715) 1s both;
          animation: animate-svg-fill-3 0.7s cubic-bezier(0.47, 0, 0.745, 0.715) 1s both;
}

@-webkit-keyframes animate-svg-fill-4 {
  0% {
    fill: transparent;
  }

  100% {
    fill: rgb(0, 139, 213);
  }
}

@keyframes animate-svg-fill-4 {
  0% {
    fill: transparent;
  }

  100% {
    fill: rgb(0, 139, 213);
  }
}

.svg-elem-4 {
  -webkit-animation: animate-svg-fill-4 0.7s cubic-bezier(0.47, 0, 0.745, 0.715) 1.1s both;
          animation: animate-svg-fill-4 0.7s cubic-bezier(0.47, 0, 0.745, 0.715) 1.1s both;
}

@-webkit-keyframes animate-svg-fill-5 {
  0% {
    fill: transparent;
  }

  100% {
    fill: rgb(0, 139, 213);
  }
}

@keyframes animate-svg-fill-5 {
  0% {
    fill: transparent;
  }

  100% {
    fill: rgb(0, 139, 213);
  }
}

.svg-elem-5 {
  -webkit-animation: animate-svg-fill-5 0.7s cubic-bezier(0.47, 0, 0.745, 0.715) 1.2000000000000002s both;
          animation: animate-svg-fill-5 0.7s cubic-bezier(0.47, 0, 0.745, 0.715) 1.2000000000000002s both;
}

@-webkit-keyframes animate-svg-fill-6 {
  0% {
    fill: transparent;
  }

  100% {
    fill: rgb(0, 139, 213);
  }
}

@keyframes animate-svg-fill-6 {
  0% {
    fill: transparent;
  }

  100% {
    fill: rgb(0, 139, 213);
  }
}

.svg-elem-6 {
  -webkit-animation: animate-svg-fill-6 0.7s cubic-bezier(0.47, 0, 0.745, 0.715) 1.3s both;
          animation: animate-svg-fill-6 0.7s cubic-bezier(0.47, 0, 0.745, 0.715) 1.3s both;
}

@-webkit-keyframes animate-svg-fill-7 {
  0% {
    fill: transparent;
  }

  100% {
    fill: rgb(0, 139, 213);
  }
}

@keyframes animate-svg-fill-7 {
  0% {
    fill: transparent;
  }

  100% {
    fill: rgb(0, 139, 213);
  }
}

.svg-elem-7 {
  -webkit-animation: animate-svg-fill-7 0.7s cubic-bezier(0.47, 0, 0.745, 0.715) 1.4000000000000001s both;
          animation: animate-svg-fill-7 0.7s cubic-bezier(0.47, 0, 0.745, 0.715) 1.4000000000000001s both;
}

@-webkit-keyframes animate-svg-fill-8 {
  0% {
    fill: transparent;
  }

  100% {
    fill: rgb(0, 139, 213);
  }
}

@keyframes animate-svg-fill-8 {
  0% {
    fill: transparent;
  }

  100% {
    fill: rgb(0, 139, 213);
  }
}

.svg-elem-8 {
  -webkit-animation: animate-svg-fill-8 0.7s cubic-bezier(0.47, 0, 0.745, 0.715) 1.5s both;
          animation: animate-svg-fill-8 0.7s cubic-bezier(0.47, 0, 0.745, 0.715) 1.5s both;
}

@-webkit-keyframes animate-svg-fill-9 {
  0% {
    fill: transparent;
  }

  100% {
    fill: rgb(0, 139, 213);
  }
}

@keyframes animate-svg-fill-9 {
  0% {
    fill: transparent;
  }

  100% {
    fill: rgb(0, 139, 213);
  }
}

.svg-elem-9 {
  -webkit-animation: animate-svg-fill-9 0.7s cubic-bezier(0.47, 0, 0.745, 0.715) 1.6s both;
          animation: animate-svg-fill-9 0.7s cubic-bezier(0.47, 0, 0.745, 0.715) 1.6s both;
}

@-webkit-keyframes animate-svg-fill-10 {
  0% {
    fill: transparent;
  }

  100% {
    fill: rgb(0, 139, 213);
  }
}

@keyframes animate-svg-fill-10 {
  0% {
    fill: transparent;
  }

  100% {
    fill: rgb(0, 139, 213);
  }
}

.svg-elem-10 {
  -webkit-animation: animate-svg-fill-10 0.7s cubic-bezier(0.47, 0, 0.745, 0.715) 1.7000000000000002s both;
          animation: animate-svg-fill-10 0.7s cubic-bezier(0.47, 0, 0.745, 0.715) 1.7000000000000002s both;
}

@-webkit-keyframes animate-svg-fill-11 {
  0% {
    fill: transparent;
  }

  100% {
    fill: rgb(0, 139, 213);
  }
}

@keyframes animate-svg-fill-11 {
  0% {
    fill: transparent;
  }

  100% {
    fill: rgb(0, 139, 213);
  }
}

.svg-elem-11 {
  -webkit-animation: animate-svg-fill-11 0.7s cubic-bezier(0.47, 0, 0.745, 0.715) 1.8s both;
          animation: animate-svg-fill-11 0.7s cubic-bezier(0.47, 0, 0.745, 0.715) 1.8s both;
}

@-webkit-keyframes animate-svg-fill-12 {
  0% {
    fill: transparent;
  }

  100% {
    fill: rgb(0, 139, 213);
  }
}

@keyframes animate-svg-fill-12 {
  0% {
    fill: transparent;
  }

  100% {
    fill: rgb(0, 139, 213);
  }
}

.svg-elem-12 {
  -webkit-animation: animate-svg-fill-12 0.7s cubic-bezier(0.47, 0, 0.745, 0.715) 1.9000000000000001s both;
          animation: animate-svg-fill-12 0.7s cubic-bezier(0.47, 0, 0.745, 0.715) 1.9000000000000001s both;
}

@-webkit-keyframes animate-svg-fill-13 {
  0% {
    fill: transparent;
  }

  100% {
    fill: rgb(0, 139, 213);
  }
}

@keyframes animate-svg-fill-13 {
  0% {
    fill: transparent;
  }

  100% {
    fill: rgb(0, 139, 213);
  }
}

.svg-elem-13 {
  -webkit-animation: animate-svg-fill-13 0.7s cubic-bezier(0.47, 0, 0.745, 0.715) 2s both;
          animation: animate-svg-fill-13 0.7s cubic-bezier(0.47, 0, 0.745, 0.715) 2s both;
}

@-webkit-keyframes animate-svg-fill-14 {
  0% {
    fill: transparent;
  }

  100% {
    fill: rgb(0, 139, 213);
  }
}

@keyframes animate-svg-fill-14 {
  0% {
    fill: transparent;
  }

  100% {
    fill: rgb(0, 139, 213);
  }
}

.svg-elem-14 {
  -webkit-animation: animate-svg-fill-14 0.7s cubic-bezier(0.47, 0, 0.745, 0.715) 2.1s both;
          animation: animate-svg-fill-14 0.7s cubic-bezier(0.47, 0, 0.745, 0.715) 2.1s both;
}

@-webkit-keyframes animate-svg-fill-15 {
  0% {
    fill: transparent;
  }

  100% {
    fill: rgb(0, 139, 213);
  }
}

@keyframes animate-svg-fill-15 {
  0% {
    fill: transparent;
  }

  100% {
    fill: rgb(0, 139, 213);
  }
}

.svg-elem-15 {
  -webkit-animation: animate-svg-fill-15 0.7s cubic-bezier(0.47, 0, 0.745, 0.715) 2.2s both;
          animation: animate-svg-fill-15 0.7s cubic-bezier(0.47, 0, 0.745, 0.715) 2.2s both;
}

@-webkit-keyframes animate-svg-fill-16 {
  0% {
    fill: transparent;
  }

  100% {
    fill: rgb(0, 139, 213);
  }
}

@keyframes animate-svg-fill-16 {
  0% {
    fill: transparent;
  }

  100% {
    fill: rgb(0, 139, 213);
  }
}

.svg-elem-16 {
  -webkit-animation: animate-svg-fill-16 0.7s cubic-bezier(0.47, 0, 0.745, 0.715) 2.3s both;
          animation: animate-svg-fill-16 0.7s cubic-bezier(0.47, 0, 0.745, 0.715) 2.3s both;
}

@-webkit-keyframes animate-svg-fill-17 {
  0% {
    fill: transparent;
  }

  100% {
    fill: rgb(0, 139, 213);
  }
}

@keyframes animate-svg-fill-17 {
  0% {
    fill: transparent;
  }

  100% {
    fill: rgb(0, 139, 213);
  }
}

.svg-elem-17 {
  -webkit-animation: animate-svg-fill-17 0.7s cubic-bezier(0.47, 0, 0.745, 0.715) 2.4000000000000004s both;
          animation: animate-svg-fill-17 0.7s cubic-bezier(0.47, 0, 0.745, 0.715) 2.4000000000000004s both;
}

@-webkit-keyframes animate-svg-fill-18 {
  0% {
    fill: transparent;
  }

  100% {
    fill: rgb(0, 139, 213);
  }
}

@keyframes animate-svg-fill-18 {
  0% {
    fill: transparent;
  }

  100% {
    fill: rgb(0, 139, 213);
  }
}

.svg-elem-18 {
  -webkit-animation: animate-svg-fill-18 0.7s cubic-bezier(0.47, 0, 0.745, 0.715) 2.5s both;
          animation: animate-svg-fill-18 0.7s cubic-bezier(0.47, 0, 0.745, 0.715) 2.5s both;
}

</style>
<g>
	<path class="st0 svg-elem-1" d="M151,62.7c-0.4-0.4-0.6-0.6-0.6-0.6c-0.3-0.3-40.6-40.6-50.1-50.4C90.2,1.3,75.4,0,74.7,0
		c-0.2,0-61.4,0-61.4,0C6,0,0,6,0,13.3V74h0.1c0,15.4,7.8,28.3,18.9,33.2c-11.3,4.9-18.6,17.5-18.9,32.6l0,0
		C0,139.9,0,140.5,0,140.5v60.9c0,7.3,6,13.3,13.3,13.3h64.9v-0.2c5-0.2,11.8-2.7,20.9-10.4l0.1,0l0.1-0.1l65.8-65.8
		c7.9-6.6,9.3-21.4,9.4-22l0-0.1V116V96.7C174.5,82.6,153,64.3,151,62.7z M24.4,4h50.2c0,0,13.9,1.2,22.8,10.5
		c9.6,9.9,49.8,50.2,50.2,50.6c0.1,0.1,3.6,3.3,3.7,7.7c0.1,3.1-1.5,6.3-4.7,9.4c0,0-9.7,9.7-22.5,22.5L24.3,4.9
		C23,3.8,24.4,4,24.4,4z M68.3,159.5c0-37.9,0-88.7,0-104.3c0,0,0.2-0.7,0.8,0c23.3,23.2,46.6,46.6,52.3,52.2
		c-19.3,19.3-43.5,43.4-52.6,52.5C68.3,160.4,68.3,159.5,68.3,159.5z M36.6,107.2c-5.7-0.5-7.7-1.2-7.7-1.2
		c-14.6-3.1-24.8-16.2-24.8-32V69L4,69.1V13.3c0-4.7,3.5-8.6,8.1-9.2c5.3,0,8,2.2,8.1,2.3c0,0,21.1,21,44.1,44.1v151
		c0,2.4,1.1,6.3,4,9.3h-55c-5.1,0-9.3-4.2-9.3-9.3v-60.3c0.1-0.1,0.1-0.7,0.1-0.7c0-15.8,10.3-28.8,24.8-31.8
		C31.6,107.8,36.6,107.2,36.6,107.2z M162.4,135.2L162.4,135.2l-0.1,0.1l-65.8,65.8c-12.2,10.3-19.1,10.4-22.8,8.6
		c-4-1.9-5.3-6.5-5.3-8.3c0,0,0-14.9,0-35.4L149.5,85c4-3.9,6-8,5.9-12.3c0-0.2,0-0.3,0-0.5c6.5,6.5,15.1,16.6,15.1,24.6v19.2
		C170.3,117,168.9,130,162.4,135.2z"></path>
	<path class="st0 svg-elem-2" d="M151,62.7c-0.4-0.4-0.6-0.6-0.6-0.6c-0.3-0.3-40.6-40.6-50.1-50.4C90.2,1.3,75.4,0,74.7,0
		c-0.2,0-61.4,0-61.4,0C6,0,0,6,0,13.3V74h0.1c0,15.4,7.8,28.3,18.9,33.2c-11.3,4.9-18.6,17.5-18.9,32.6l0,0
		C0,139.9,0,140.5,0,140.5v60.9c0,7.3,6,13.3,13.3,13.3h64.9v-0.2c5-0.2,11.8-2.7,20.9-10.4l0.1,0l0.1-0.1l65.8-65.8
		c7.9-6.6,9.3-21.4,9.4-22l0-0.1V116V96.7C174.5,82.6,153,64.3,151,62.7z M24.4,4h50.2c0,0,13.9,1.2,22.8,10.5
		c9.6,9.9,49.8,50.2,50.2,50.6c0.1,0.1,3.6,3.3,3.7,7.7c0.1,3.1-1.5,6.3-4.7,9.4c0,0-9.7,9.7-22.5,22.5L24.3,4.9
		C23,3.8,24.4,4,24.4,4z M68.3,159.5c0-37.9,0-88.7,0-104.3c0,0,0.2-0.7,0.8,0c23.3,23.2,46.6,46.6,52.3,52.2
		c-19.3,19.3-43.5,43.4-52.6,52.5C68.3,160.4,68.3,159.5,68.3,159.5z M36.6,107.2c-5.7-0.5-7.7-1.2-7.7-1.2
		c-14.6-3.1-24.8-16.2-24.8-32V69L4,69.1V13.3c0-4.7,3.5-8.6,8.1-9.2c5.3,0,8,2.2,8.1,2.3c0,0,21.1,21,44.1,44.1v151
		c0,2.4,1.1,6.3,4,9.3h-55c-5.1,0-9.3-4.2-9.3-9.3v-60.3c0.1-0.1,0.1-0.7,0.1-0.7c0-15.8,10.3-28.8,24.8-31.8
		C31.6,107.8,36.6,107.2,36.6,107.2z M162.4,135.2L162.4,135.2l-0.1,0.1l-65.8,65.8c-12.2,10.3-19.1,10.4-22.8,8.6
		c-4-1.9-5.3-6.5-5.3-8.3c0,0,0-14.9,0-35.4L149.5,85c4-3.9,6-8,5.9-12.3c0-0.2,0-0.3,0-0.5c6.5,6.5,15.1,16.6,15.1,24.6v19.2
		C170.3,117,168.9,130,162.4,135.2z"></path>
	<g>
		<path class="st0 svg-elem-3" d="M2,224.4h1.6c1.3-0.1,3-0.1,4.1,0.5c2.8,1.5,2.7,5.7,2.7,8.4c0,2.5-0.1,7.2-2.9,8.4c-1,0.4-2.2,0.4-3.2,0.4H2
			V224.4z M0.2,243.7h4.1c3.5,0,5.8-0.7,7-4.3c0.9-2.3,0.8-5.4,0.8-7.8c0-2.1-0.6-5.2-2-6.9c-1.7-1.9-3.8-2-6.2-2H0.2V243.7z"></path>
		<path class="st0 svg-elem-4" d="M16.8,235.7l2.8-10.6h0.1l2.8,10.6H16.8z M18.6,222.8l-5.6,21h1.8l1.7-6.4h6.4l1.7,6.4h1.8l-5.6-21H18.6z"></path>
		<path class="st0 svg-elem-5" d="M28.8,243.7v-21h1.8v21H28.8z"></path>
		<path class="st0 svg-elem-6" d="M35.9,224.4h1.6c1.3-0.1,3-0.1,4,0.5c2.8,1.5,2.7,5.7,2.7,8.4c0,2.5-0.1,7.2-2.9,8.4
			c-0.9,0.4-2.2,0.4-3.2,0.4h-2.2V224.4z M34.1,243.7h4.1c3.5,0,5.8-0.7,7-4.3c0.9-2.3,0.8-5.4,0.8-7.8c0-2.1-0.6-5.2-2-6.9
			c-1.7-1.9-3.8-2-6.2-2h-3.8V243.7z"></path>
		<path class="st0 svg-elem-7" d="M54.8,242.6c-4.6,0-4.4-6.3-4.4-9.5c0-3,0-9.2,4.2-9.2c4.5,0,4.4,6.3,4.4,9.4C59,236.3,59.2,242.6,54.8,242.6
			z M54.6,244.2c5.9,0,6.2-6,6.2-10.5c0-4.6,0-11.4-6.2-11.4c-5.5,0-6.1,6.1-6.1,10.4C48.5,237.1,48.6,244.2,54.6,244.2z"></path>
		<path class="st0 svg-elem-8" d="M77.1,243.7v-21h2v19.3h8.4v1.6H77.1z"></path>
		<path class="st0 svg-elem-9" d="M90.6,243.7v-21h1.9v21H90.6z"></path>
		<path class="st0 svg-elem-10" d="M94.8,243.7v-21h10.4v1.6h-8.5v7.5h7.5v1.6h-7.5v10.2H94.8z"></path>
		<path class="st0 svg-elem-11" d="M106.6,243.7v-21h10.3v1.6h-8.3v7.5h7.5v1.6h-7.5v8.6h8.5v1.6H106.6z"></path>
		<path class="st0 svg-elem-12" d="M139.8,232.3c3.3,1.3,5.7,2.2,5.7,6c0,3.6-2.5,5.9-6.4,5.9c-4.1,0-6.2-2.7-6.2-6.4h1.9c0,2.6,1.1,4.8,4.2,4.8
			c2.7,0,4.5-1.6,4.5-4.2c0-3.2-2.4-3.7-5-4.6c-3-1.1-5.2-2.4-5.2-5.7c0-3.4,2.2-5.8,5.8-5.8c3.5,0,5.8,2.3,5.7,5.6H143
			c0.1-2.3-1.4-3.9-3.9-3.9c-2.6,0-3.9,1.8-3.9,4c0,2.1,0.7,2.9,2.7,3.7L139.8,232.3z"></path>
		<path class="st0 svg-elem-13" d="M147.9,243.7v-21h10.2v1.6h-8.2v7.5h7.5v1.6h-7.5v8.6h8.4v1.6H147.9z"></path>
		<path class="st0 svg-elem-14" d="M162.7,224.4h2.8c3,0,4.5,0.8,4.5,3.9c0,3.7-3.3,4-3.9,4h-3.4V224.4z M164.7,233.9c2.5,0,4.8,0.2,5,3
			c0.1,1.5,0.1,5.1,0.9,6.9h2.1v-0.2c-1.1-0.6-1-4.2-1-5.2c0-2.6-0.4-4.5-3-5.1v-0.1c2.4-0.5,3.3-2.9,3.3-4.9c0-4.3-2.8-5.4-6.9-5.4
			h-4.3v21h1.9v-9.8H164.7z"></path>
		<path class="st0 svg-elem-15" d="M173.5,222.8h2l5,18.6h0.1l5.1-18.6h1.9l-5.9,21h-2.2L173.5,222.8z"></path>
		<path class="st0 svg-elem-16" d="M190,243.7v-21h1.9v21H190z"></path>
		<path class="st0 svg-elem-17" d="M207.5,236.7c0.1,3.6-1.9,7.6-6.3,7.6c-6.5,0-6.5-7.1-6.5-11.6c0-4.3,0.6-10.4,6.6-10.4c4,0,6.1,3,6.1,6.5
			h-1.9c-0.2-2.5-1.2-4.9-4.2-4.9c-4.7,0-4.6,6.4-4.6,9.2c0,3.2-0.2,9.5,4.8,9.5c3.4,0,4.1-3.4,4.2-6H207.5z"></path>
		<path class="st0 svg-elem-18" d="M209.6,243.7v-21h10.2v1.6h-8.2v7.5h7.5v1.6h-7.5v8.6h8.4v1.6H209.6z"></path>
	</g>
</g>
</svg>
