<?xml version="1.0" encoding="utf-8"?>
<!-- Generator: Adobe Illustrator 26.5.3, SVG Export Plug-In . SVG Version: 6.00 Build 0)  -->
<svg version="1.1" id="レイヤー_1" xmlns="http://www.w3.org/2000/svg" xmlns:xlink="http://www.w3.org/1999/xlink" x="0px"
	 y="0px" viewBox="0 0 47 65.3" style="enable-background:new 0 0 47 65.3;" xml:space="preserve">
<style type="text/css">
	.st0{fill:#0F55A6;}
	.st1{fill:none;stroke:#FFFFFF;stroke-miterlimit:10;}
	.st2{fill:#FFFFFF;}
</style>
<g>
	<g>
		<path class="st0" d="M46.5,23.5c0,12.7-23,41-23,41s-23-28.3-23-41s10.3-23,23-23S46.5,10.8,46.5,23.5z"/>
		<path class="st1" d="M46.5,23.5c0,12.7-23,41-23,41s-23-28.3-23-41s10.3-23,23-23S46.5,10.8,46.5,23.5z"/>
	</g>
	<g>
		<g>
			<path class="st2" d="M12.7,22c-0.8,0-1.3,0-1.8,0.1v-1.7c0.5,0.1,1,0.1,1.8,0.1h7.5c0.8,0,1.3,0,1.8-0.1v1.7
				C21.5,22,21,22,20.3,22h-3.1v7.5h3.8c0.8,0,1.3,0,1.9-0.1v1.7C22.3,31,21.7,31,20.9,31H12c-0.7,0-1.3,0-1.9,0.1v-1.7
				c0.6,0.1,1.1,0.1,1.9,0.1h3.5V22H12.7z"/>
			<path class="st2" d="M29.7,27.9c-0.6,0.5-0.9,0.7-1.7,1.2c-0.2-0.3-0.2-0.4-0.5-0.7c-0.8,0.5-1.5,0.9-2.8,1.5
				c0,0-0.1,0.1-0.2,0.1c0,0-0.1,0-0.1,0.1L24,28.3c0.4-0.1,0.9-0.3,1.6-0.6V24h-0.4c-0.4,0-0.7,0-1.1,0.1v-1.5
				c0.3,0.1,0.6,0.1,1.1,0.1h0.4V21c0-0.7,0-1.1-0.1-1.6h1.6C27,19.8,27,20.2,27,21v1.7h0.3c0.5,0,0.7,0,1-0.1v1.5
				c-0.3,0-0.6-0.1-1-0.1H27v3c0.4-0.2,0.5-0.3,0.9-0.5v1c0.8-0.5,1.3-0.9,1.7-1.4h-0.3c-0.6,0-1,0-1.3,0.1v-1.4
				c0.3,0.1,0.7,0.1,1.3,0.1h6.1c0.7,0,1.1,0,1.5-0.1v1.4c-0.4,0-0.8-0.1-1.4-0.1h-4.3c-0.1,0.2-0.2,0.3-0.4,0.6h4.5
				c0.7,0,1,0,1.4,0c0,0.2,0,0.4-0.1,0.8c-0.1,1.8-0.3,3.2-0.6,3.8c-0.3,0.6-0.7,0.8-2,0.8c-0.4,0-0.6,0-1.2,0
				c-0.1-0.5-0.2-0.9-0.4-1.3c-0.8,0.7-1.3,1.1-2.3,1.5c-0.3-0.5-0.5-0.7-1-1.1c1.2-0.5,1.8-0.9,2.5-1.5c0.6-0.5,1-1.1,1.5-1.9h-0.8
				c-0.9,1.3-2.1,2.3-3.9,3.1c-0.2-0.4-0.4-0.7-0.9-1.1c1.6-0.6,2.5-1.2,3.2-2H29.7z M30.1,24.2c-0.5,0-1,0-1.3,0.1
				c0-0.4,0.1-0.8,0.1-1.4v-2c0-0.6,0-0.8-0.1-1.3c0.4,0.1,0.8,0.1,1.4,0.1h4.1c0.7,0,1.1,0,1.5-0.1c0,0.4-0.1,0.7-0.1,1.4v1.9
				c0,0.6,0,1,0.1,1.3c-0.3,0-0.7,0-1.3,0H30.1z M30.3,21.5h4v-0.6h-4V21.5z M30.3,23.1h4v-0.6h-4V23.1z M34.6,27.9
				c-0.5,1.2-1.1,1.9-2,2.7c0.6,0.1,1,0.1,1.4,0.1c0.5,0,0.7-0.1,0.8-0.7c0.1-0.5,0.2-1.1,0.2-2.1H34.6z"/>
		</g>
	</g>
</g>
</svg>
