<svg xmlns="http://www.w3.org/2000/svg" xmlns:xlink="http://www.w3.org/1999/xlink" width="90" height="69" viewBox="0 0 90 69">
  <defs>
    <clipPath id="clip-path">
      <rect id="長方形_1004" data-name="長方形 1004" width="90" height="69" transform="translate(826 615)" fill="none" stroke="#707070" stroke-width="1"/>
    </clipPath>
    <clipPath id="clip-path-2">
      <rect id="長方形_413" data-name="長方形 413" width="68.879" height="57" fill="none"/>
    </clipPath>
  </defs>
  <g id="医療" transform="translate(-826 -615)" clip-path="url(#clip-path)">
    <g id="医療-2" data-name="医療" transform="translate(837.001 627)" clip-path="url(#clip-path-2)">
      <path id="パス_197" data-name="パス 197" d="M109.62,11.222a9.551,9.551,0,1,1-19.1,0V9.55a9.551,9.551,0,1,1,19.1,0Z" transform="translate(-79.135 0.001)" fill="#f39800"/>
      <path id="パス_198" data-name="パス 198" d="M30.982,207.6a77.256,77.256,0,0,1-2.6-13.6,40.832,40.832,0,0,0-7.449-.6,44.583,44.583,0,0,0-9.5.956C6.841,195.2,0,198.133,0,204.42v14.713H36.073A43.823,43.823,0,0,1,30.982,207.6" transform="translate(0 -169.079)" fill="#f39800"/>
      <path id="パス_199" data-name="パス 199" d="M283.742,111.615a.441.441,0,0,0-.313-.142c-8.342-.213-16.089-6.2-18.264-8.03a.441.441,0,0,0-.568,0c-2.175,1.83-9.922,7.818-18.264,8.03a.442.442,0,0,0-.429.465,75.521,75.521,0,0,0,2.744,16.132,38.7,38.7,0,0,0,5.689,12.152,17.386,17.386,0,0,0,10.454,7.113.436.436,0,0,0,.18,0,17.386,17.386,0,0,0,10.454-7.113,38.693,38.693,0,0,0,5.689-12.152,75.538,75.538,0,0,0,2.744-16.132.441.441,0,0,0-.116-.323m-10.828,10.968h-6.121v11.348h-3.825V122.582h-6.121v-3.825h6.121v-4.548h3.825v4.548h6.121Z" transform="translate(-214.98 -90.344)" fill="#f39800"/>
    </g>
  </g>
</svg>
