<svg xmlns="http://www.w3.org/2000/svg" xmlns:xlink="http://www.w3.org/1999/xlink" width="58" height="40" viewBox="0 0 58 40">
  <defs>
    <clipPath id="clip-path">
      <rect id="長方形_897" data-name="長方形 897" width="58" height="40" transform="translate(380 170)" fill="#fff"/>
    </clipPath>
    <clipPath id="clip-path-2">
      <rect id="長方形_409" data-name="長方形 409" width="38.251" height="23.358" fill="none"/>
    </clipPath>
  </defs>
  <g id="自賠責保険" transform="translate(-380 -170)" clip-path="url(#clip-path)">
    <g id="バイク" transform="translate(390 178.821)">
      <g id="グループ_454" data-name="グループ 454" transform="translate(0 0)" clip-path="url(#clip-path-2)">
        <path id="パス_186" data-name="パス 186" d="M36.506,6.042V4.168a19.663,19.663,0,0,0-8.271,1.357c-4.523,1.745-7.818,1.292-8.27.84s-2.52-2.455-2.843-2.714S16.153,2.359,15.442,3a1.111,1.111,0,0,1-.39.226l.721-1.482a.7.7,0,0,1,.625-.391h3.89c.375,0,.349-.3.349-.679S20.663,0,20.288,0H16.4a2.051,2.051,0,0,0-1.845,1.155l-.893,1.834A7.35,7.35,0,0,0,9.724,1.584V6.106s1.558-.14,2.5-.3L11.133,7.648a9.143,9.143,0,0,0-9.046.067L2.516,9a8.065,8.065,0,0,1,3.136-.89,8.171,8.171,0,0,1,4.69.871l-1.249,2.1a6.435,6.435,0,1,0,1.323.809l1.191-2a11.332,11.332,0,0,1,2.867,4.844c.025.073.869.8.873.873l.107-.234c.11,2.071,1.734,2.108,1.734,2.108h6.074c2.326-8.852,11.7-10.985,13.246-11.436M10.273,16.929a3.857,3.857,0,1,1-2.513-3.6L6.406,15.607a1.342,1.342,0,1,0,1.272.9l1.4-2.355a3.829,3.829,0,0,1,1.2,2.782m2.142-8.4,1-1.676a37.239,37.239,0,0,1,1.353,4.54,9.147,9.147,0,0,0-2.348-2.864" transform="translate(0 0)" fill="#fff"/>
        <path id="パス_187" data-name="パス 187" d="M91.4,35.137a6.429,6.429,0,1,0,6.429,6.429A6.429,6.429,0,0,0,91.4,35.137m0,10.273a3.845,3.845,0,1,1,3.845-3.845A3.845,3.845,0,0,1,91.4,45.41" transform="translate(-59.581 -24.637)" fill="#fff"/>
        <path id="パス_188" data-name="パス 188" d="M103.379,52.218a1.325,1.325,0,1,0,1.324,1.324,1.324,1.324,0,0,0-1.324-1.324" transform="translate(-71.557 -36.613)" fill="#fff"/>
      </g>
    </g>
  </g>
</svg>
