<svg xmlns="http://www.w3.org/2000/svg" xmlns:xlink="http://www.w3.org/1999/xlink" width="40.557" height="33.562" viewBox="0 0 40.557 33.562">
  <defs>
    <clipPath id="clip-path">
      <rect id="長方形_413" data-name="長方形 413" width="40.557" height="33.562" fill="none"/>
    </clipPath>
  </defs>
  <g id="医療" clip-path="url(#clip-path)">
    <path id="パス_197" data-name="パス 197" d="M101.766,6.607a5.624,5.624,0,1,1-11.248,0V5.623a5.624,5.624,0,1,1,11.248,0Z" transform="translate(-83.816 0.001)" fill="#f3a62e"/>
    <path id="パス_198" data-name="パス 198" d="M18.243,201.758a45.489,45.489,0,0,1-1.531-8.007,24.042,24.042,0,0,0-4.386-.352,26.251,26.251,0,0,0-5.6.563c-2.7.5-6.731,2.224-6.731,5.926v8.663H21.24a25.8,25.8,0,0,1-3-6.793" transform="translate(0 -179.079)" fill="#f3a62e"/>
    <path id="パス_199" data-name="パス 199" d="M268.183,108.212a.26.26,0,0,0-.184-.084c-4.912-.125-9.473-3.651-10.754-4.728a.26.26,0,0,0-.335,0c-1.281,1.078-5.842,4.6-10.754,4.728a.26.26,0,0,0-.253.274,44.468,44.468,0,0,0,1.616,9.5,22.783,22.783,0,0,0,3.35,7.155,10.237,10.237,0,0,0,6.156,4.188.256.256,0,0,0,.106,0,10.237,10.237,0,0,0,6.156-4.188,22.782,22.782,0,0,0,3.35-7.155,44.479,44.479,0,0,0,1.616-9.5.26.26,0,0,0-.069-.19m-6.376,6.458h-3.6v6.682h-2.252V114.67h-3.6v-2.252h3.6V109.74H258.2v2.678h3.6Z" transform="translate(-227.695 -95.687)" fill="#f3a62e"/>
  </g>
</svg>
