<svg xmlns="http://www.w3.org/2000/svg" xmlns:xlink="http://www.w3.org/1999/xlink" width="90" height="69" viewBox="0 0 90 69">
  <defs>
    <clipPath id="clip-path">
      <rect id="長方形_1006" data-name="長方形 1006" width="90" height="69" transform="translate(1203 581)" fill="none" stroke="#707070" stroke-width="1"/>
    </clipPath>
    <clipPath id="clip-path-2">
      <rect id="長方形_415" data-name="長方形 415" width="61.224" height="64" fill="none"/>
    </clipPath>
  </defs>
  <g id="介護" transform="translate(-1203 -581)" clip-path="url(#clip-path)">
    <g id="介護-2" data-name="介護" transform="translate(1217 586)">
      <g id="グループ_466" data-name="グループ 466" clip-path="url(#clip-path-2)">
        <path id="パス_201" data-name="パス 201" d="M44.869,28.78a5.412,5.412,0,1,0-6.583-3.9,5.41,5.41,0,0,0,6.583,3.9" transform="translate(-19.058 -9.062)" fill="#f39800"/>
        <path id="パス_202" data-name="パス 202" d="M42.254,71.322l-.366,3.83a11.645,11.645,0,0,1,1.762,1.434,11.46,11.46,0,1,1-19.107,11.28l-1.953,4.306A14.963,14.963,0,1,0,42.254,71.322" transform="translate(-11.296 -35.661)" fill="#f39800"/>
        <path id="パス_203" data-name="パス 203" d="M27.382,63.036l1.374-14.395a4.157,4.157,0,0,0-3.67-4.778,5.476,5.476,0,0,0-4.206,1.677l-6.759,6.653-7.073.595a2.194,2.194,0,0,0-2.011,2.185v.132a2.195,2.195,0,0,0,2.2,2.194h7.287a3.193,3.193,0,0,0,1.9-.626L19.367,54.5l-.635,7.021-9.24.674c-2.683.107-3.866,1.182-4.875,3.59L.258,77.765A2.918,2.918,0,0,0,5.58,80.157l4.914-10.5h9.423c4.74-.052,6.978-2.042,7.466-6.625" transform="translate(0 -21.923)" fill="#f39800"/>
        <path id="パス_204" data-name="パス 204" d="M96.806,10.656a5.412,5.412,0,1,0-6.584-3.9,5.41,5.41,0,0,0,6.584,3.9" transform="translate(-45.026 0)" fill="#f39800"/>
        <path id="パス_205" data-name="パス 205" d="M93.427,49.274,90.968,30.137c-.629-4.769-6.149-5.9-9.287-3.012l-7.655,6.9L66.7,36.783a2.253,2.253,0,0,0-1.375,2.785l.027.088a2.255,2.255,0,0,0,2.662,1.527l5.64-1.546a10.111,10.111,0,0,0,3.383-1.469L79.8,36.475l1.544,12.046c.086.664-1.122,3.617-1.318,4.329l-6.18,19.277a2.882,2.882,0,0,0,1.844,3.623l.1.033a2.882,2.882,0,0,0,3.556-1.616L86.3,57.337l1.675,16.809a2.883,2.883,0,0,0,3.109,2.62l.11-.01a2.884,2.884,0,0,0,2.644-2.873Z" transform="translate(-32.612 -12.776)" fill="#f39800"/>
      </g>
    </g>
  </g>
</svg>
