<svg xmlns="http://www.w3.org/2000/svg" xmlns:xlink="http://www.w3.org/1999/xlink" width="90" height="77" viewBox="0 0 90 77">
  <defs>
    <clipPath id="clip-path">
      <rect id="長方形_996" data-name="長方形 996" width="90" height="77" transform="translate(447 404)" fill="none" stroke="#707070" stroke-width="1"/>
    </clipPath>
    <clipPath id="clip-path-2">
      <rect id="長方形_410" data-name="長方形 410" width="71.504" height="54.497" fill="none"/>
    </clipPath>
  </defs>
  <g id="車" transform="translate(-447 -404)" clip-path="url(#clip-path)">
    <g id="車-2" data-name="車" transform="translate(456 421.568)">
      <g id="グループ_456" data-name="グループ 456" transform="translate(0 0)" clip-path="url(#clip-path-2)">
        <path id="パス_189" data-name="パス 189" d="M4.793,30.2c.32-.7.935-1.856,2.014-3.884.5-.932,1.048-1.964,1.617-3.02H3.453a3.452,3.452,0,1,0,0,6.9Z" transform="translate(0 -10.28)" fill="#0068b7"/>
        <path id="パス_190" data-name="パス 190" d="M117.892,23.291h-4.971c.57,1.056,1.123,2.088,1.617,3.02,1.079,2.028,1.692,3.183,2.014,3.884h1.34a3.452,3.452,0,1,0,0-6.9" transform="translate(-49.841 -10.28)" fill="#0068b7"/>
        <path id="パス_191" data-name="パス 191" d="M9.849,85.745a4.654,4.654,0,1,0,9.307,0v-4.4H9.849Z" transform="translate(-4.347 -35.903)" fill="#0068b7"/>
        <path id="パス_192" data-name="パス 192" d="M101.486,85.745a4.655,4.655,0,0,0,9.309,0v-4.4h-9.309Z" transform="translate(-44.794 -35.903)" fill="#0068b7"/>
        <path id="パス_193" data-name="パス 193" d="M66.893,20.781c.235.07-8.616-16.175-9.04-17.052A7.315,7.315,0,0,0,51.281,0H23.322a7.32,7.32,0,0,0-6.572,3.729c-.423.877-9.269,17.122-9.037,17.052,0,0-2.863,2.856-3.08,3.084A4.338,4.338,0,0,0,3.514,27.4V40.327c0,2.413.43,3.734,3.272,3.734H67.818c2.843,0,3.275-1.321,3.275-3.734V27.4a4.334,4.334,0,0,0-1.123-3.535c-.211-.228-3.077-3.084-3.077-3.084M15.037,15.8S20.72,5.56,21.056,4.89A4.43,4.43,0,0,1,24.94,2.917H49.664A4.427,4.427,0,0,1,53.549,4.89c.339.67,6.022,10.908,6.022,10.908a1.817,1.817,0,0,1-1.489,2.7H16.524a1.816,1.816,0,0,1-1.487-2.7m-.759,22.771A5.223,5.223,0,1,1,19.5,33.347a5.222,5.222,0,0,1-5.221,5.222m30.954,1.412a.691.691,0,0,1-.689.692H30.065a.694.694,0,0,1-.693-.692V33.6a.691.691,0,0,1,.693-.686H44.542a.689.689,0,0,1,.689.686Zm15.1-1.412a5.223,5.223,0,1,1,5.225-5.222,5.224,5.224,0,0,1-5.225,5.222" transform="translate(-1.55 0)" fill="#0068b7"/>
      </g>
    </g>
  </g>
</svg>
