<svg id="グループ_398" data-name="グループ 398" xmlns="http://www.w3.org/2000/svg" xmlns:xlink="http://www.w3.org/1999/xlink" width="43.024" height="37.08" viewBox="0 0 43.024 37.08">
  <defs>
    <clipPath id="clip-path">
      <rect id="長方形_392" data-name="長方形 392" width="43.024" height="37.08" fill="none"/>
    </clipPath>
  </defs>
  <g id="グループ_397" data-name="グループ 397" clip-path="url(#clip-path)">
    <path id="パス_128" data-name="パス 128" d="M44.448,13.624c.135,0,.216,0,.262,0a.621.621,0,0,0,.486-1.1c-.178-.136-.319-.138-.735-.142a.57.57,0,0,1-.56-.558L43.849,8.08a6.367,6.367,0,0,1,.566-2.7l1.676-3.69a.567.567,0,0,1,.511-.331l15.764-.114a.574.574,0,0,1,.43.194l3.911,4.484a.619.619,0,0,0,.178.141l4.061,2.149a1.121,1.121,0,0,1,.12.075h-.178a1.23,1.23,0,0,0-1.229,1.229V10.3a1.23,1.23,0,0,0,1.229,1.229h.347a.616.616,0,0,0,.315-.088l0,.4a.568.568,0,0,1-.556.571l-1.607.035a.621.621,0,0,0,.013,1.241h.014l1.606-.035a1.813,1.813,0,0,0,1.771-1.823L72.77,9.157a2.334,2.334,0,0,0-1.244-2.045l-3.959-2.1L63.731.619A1.843,1.843,0,0,0,62.357,0L46.593.114a1.811,1.811,0,0,0-1.632,1.059l-1.676,3.69A7.617,7.617,0,0,0,42.608,8.1l.052,3.745a1.8,1.8,0,0,0,1.787,1.781m26.787-3.339L70.9,10.3l-.012-.773h.293a.617.617,0,0,0,.351-.109l.009.954a.613.613,0,0,0-.3-.083" transform="translate(-30.951)" fill="#1864b8" stroke="#1864b8" stroke-width="0.12"/>
    <path id="パス_129" data-name="パス 129" d="M78.089,46.664c2.219.041,3.069.052,3.887.052.343,0,.679,0,1.109,0,.776,0,1.859-.011,3.821-.011a.62.62,0,0,0,0-1.241c-1.965,0-3.051.006-3.828.011-1.48.008-1.832.01-4.966-.048a.628.628,0,0,0-.632.609.621.621,0,0,0,.609.632" transform="translate(-56.284 -32.997)" fill="#1864b8" stroke="#1864b8" stroke-width="0.12"/>
    <path id="パス_130" data-name="パス 130" d="M92.514,11.1a.62.62,0,0,0,.468-1.028L90.473,7.192A.621.621,0,0,0,90,6.979H82.862a.62.62,0,0,0-.62.636l.071,2.85a.62.62,0,0,0,.618.6l9.58.035ZM83.539,9.832,83.5,8.22h6.223l1.426,1.64Z" transform="translate(-59.743 -5.07)" fill="#1864b8" stroke="#1864b8" stroke-width="0.12"/>
    <path id="パス_131" data-name="パス 131" d="M61.631,10.93a.621.621,0,0,0,.178-.441l-.027-2.831a.62.62,0,0,0-.62-.614H56.844a.62.62,0,0,0-.568.37L55.01,10.282a.62.62,0,0,0,.567.871h0l5.612-.038a.621.621,0,0,0,.438-.185m-5.1-1.024.716-1.621h3.3l.015,1.594Z" transform="translate(-39.922 -5.117)" fill="#1864b8" stroke="#1864b8" stroke-width="0.12"/>
    <path id="パス_132" data-name="パス 132" d="M119.618,43.2a2.805,2.805,0,1,0-2.8-2.805,2.809,2.809,0,0,0,2.8,2.805m0-4.369a1.564,1.564,0,1,1-1.564,1.564,1.566,1.566,0,0,1,1.564-1.564" transform="translate(-84.857 -27.304)" fill="#1864b8" stroke="#1864b8" stroke-width="0.12"/>
    <path id="パス_133" data-name="パス 133" d="M54.661,40.392a2.805,2.805,0,1,0,2.805-2.8,2.809,2.809,0,0,0-2.805,2.8m4.37,0a1.565,1.565,0,1,1-1.565-1.564,1.567,1.567,0,0,1,1.565,1.564" transform="translate(-39.707 -27.304)" fill="#1864b8" stroke="#1864b8" stroke-width="0.12"/>
    <path id="パス_134" data-name="パス 134" d="M42.23,63.685c-.785-.472-1.845-.213-2.835.695-.211.194-.418.388-.622.58a9.322,9.322,0,0,1-2.786,2.084,1.834,1.834,0,0,1-.526.108.57.57,0,1,0,.069,1.138,2.978,2.978,0,0,0,.845-.174,10.047,10.047,0,0,0,3.18-2.325c.2-.188.4-.38.612-.57.7-.644,1.223-.71,1.477-.558a.6.6,0,0,1,.224.652,31.313,31.313,0,0,1-4.233,4.593A52.046,52.046,0,0,1,27.9,73.134c-1.7.282-5.907-.264-8.317-.7a11.168,11.168,0,0,0-2.61-.127.577.577,0,0,0-.107.017l-2.906-4.646a15.63,15.63,0,0,1,3.1-1.56,10.35,10.35,0,0,1,3.606-.338c.6.068,1.27.168,1.916.264.808.12,1.57.234,2.179.284.662.055,2.556-.022,4.226-.091,1.041-.043,2.117-.087,2.352-.071,1.18.077,1.915.463,2.183,1.146a.566.566,0,0,0,.178.237.566.566,0,0,0-.283.156,2.1,2.1,0,0,1-.971.305,17.849,17.849,0,0,1-2.123.215c-.153,0-.39.007-.67.011a23.217,23.217,0,0,0-2.922.125,15.181,15.181,0,0,0-3.073,1.264l-.078.039a.57.57,0,0,0,.129,1.085.6.6,0,0,0,.1.009.771.771,0,0,0,.362-.116,13.668,13.668,0,0,1,2.813-1.17c.274-.061,1.962-.086,2.683-.1.285,0,.527-.008.683-.011a19.194,19.194,0,0,0,2.278-.229,2.871,2.871,0,0,0,1.6-.632.57.57,0,0,0-.008-.806.53.53,0,0,0-.048-.039.6.6,0,0,0,.087-.025.57.57,0,0,0,.322-.739c-.305-.777-1.1-1.733-3.17-1.868-.281-.019-1.081.013-2.473.069-1.556.063-3.494.142-4.086.094-.571-.047-1.316-.158-2.1-.276-.655-.1-1.332-.2-1.955-.269a11.318,11.318,0,0,0-3.992.361,15.575,15.575,0,0,0-3.443,1.7l-.137-.219a1.13,1.13,0,0,0-1.573-.35L11,66.55a.57.57,0,0,0,.6.968l.657-.421,4.787,7.637-1.443.851L9.7,65.752a.57.57,0,0,0-.808-.179c-.027.018-2.753,1.85-8.612,5.306a.57.57,0,1,0,.579.982c4.47-2.637,7.132-4.337,8.168-5.012l5.6,9.336c-1.357.784-5.33,3.08-10.245,5.927a.57.57,0,1,0,.572.987c6.1-3.532,10.746-6.216,10.746-6.216a.57.57,0,0,0,.208-.213.558.558,0,0,0,.216-.07l1.5-.882a1.131,1.131,0,0,0,.384-1.574l-.447-.715a9.389,9.389,0,0,1,1.824.128,48.875,48.875,0,0,0,7.306.793,8.937,8.937,0,0,0,1.4-.091,52.506,52.506,0,0,0,10.161-3.393,27.1,27.1,0,0,0,4.708-5.221,1.738,1.738,0,0,0-.73-1.96" transform="translate(0 -46.095)" fill="#1864b8" stroke="#1864b8" stroke-width="0.12"/>
  </g>
</svg>
