<svg id="介護" xmlns="http://www.w3.org/2000/svg" xmlns:xlink="http://www.w3.org/1999/xlink" width="37.735" height="39.446" viewBox="0 0 37.735 39.446">
  <defs>
    <clipPath id="clip-path">
      <rect id="長方形_415" data-name="長方形 415" width="37.735" height="39.446" fill="none"/>
    </clipPath>
  </defs>
  <g id="グループ_466" data-name="グループ 466" clip-path="url(#clip-path)">
    <path id="パス_201" data-name="パス 201" d="M42.278,24.692a3.336,3.336,0,1,0-4.057-2.4,3.334,3.334,0,0,0,4.057,2.4" transform="translate(-26.37 -12.539)" fill="#3a92f4"/>
    <path id="パス_202" data-name="パス 202" d="M34.71,71.322l-.225,2.361a7.177,7.177,0,0,1,1.086.884,7.064,7.064,0,1,1-11.777,6.952l-1.2,2.654A9.222,9.222,0,1,0,34.71,71.322" transform="translate(-15.629 -49.342)" fill="#3a92f4"/>
    <path id="パス_203" data-name="パス 203" d="M16.877,55.674l.847-8.872a2.562,2.562,0,0,0-2.262-2.945,3.375,3.375,0,0,0-2.593,1.034L8.7,48.991l-4.359.366A1.352,1.352,0,0,0,3.1,50.7v.082a1.353,1.353,0,0,0,1.353,1.352H8.949a1.968,1.968,0,0,0,1.172-.386l1.816-1.341-.391,4.327-5.695.415a2.975,2.975,0,0,0-3,2.213L.159,64.752a1.8,1.8,0,0,0,3.281,1.475l3.029-6.469h5.808c2.921-.032,4.3-1.258,4.6-4.084" transform="translate(0 -30.334)" fill="#3a92f4"/>
    <path id="パス_204" data-name="パス 204" d="M94.215,6.568a3.336,3.336,0,1,0-4.058-2.4,3.334,3.334,0,0,0,4.058,2.4" transform="translate(-62.301 0)" fill="#3a92f4"/>
    <path id="パス_205" data-name="パス 205" d="M82.606,40.173l-1.516-11.8a3.362,3.362,0,0,0-5.724-1.856l-4.718,4.255-4.515,1.7a1.389,1.389,0,0,0-.847,1.717l.016.054a1.39,1.39,0,0,0,1.641.941l3.477-.953a6.232,6.232,0,0,0,2.085-.906l1.7-1.043.952,7.425a16.442,16.442,0,0,1-.812,2.668L70.537,54.259a1.776,1.776,0,0,0,1.137,2.233l.064.02a1.776,1.776,0,0,0,2.191-1l4.283-10.374L79.244,55.5a1.777,1.777,0,0,0,1.917,1.615l.068-.006a1.777,1.777,0,0,0,1.63-1.771Z" transform="translate(-45.123 -17.677)" fill="#3a92f4"/>
  </g>
</svg>
