<svg xmlns="http://www.w3.org/2000/svg" xmlns:xlink="http://www.w3.org/1999/xlink" width="90" height="77" viewBox="0 0 90 77">
  <defs>
    <clipPath id="clip-path">
      <rect id="長方形_997" data-name="長方形 997" width="90" height="77" transform="translate(633 412)" fill="none" stroke="#707070" stroke-width="1"/>
    </clipPath>
    <clipPath id="clip-path-2">
      <rect id="長方形_409" data-name="長方形 409" width="81.315" height="49.656" fill="none"/>
    </clipPath>
  </defs>
  <g id="バイク" transform="translate(-633 -412)" clip-path="url(#clip-path)">
    <g id="バイク-2" data-name="バイク" transform="translate(637 432.4)">
      <g id="グループ_454" data-name="グループ 454" transform="translate(0 0)" clip-path="url(#clip-path-2)">
        <path id="パス_186" data-name="パス 186" d="M77.607,12.844V8.86a41.8,41.8,0,0,0-17.582,2.884c-9.615,3.709-16.619,2.748-17.581,1.786S37.087,8.311,36.4,7.761s-2.06-2.746-3.572-1.373a2.362,2.362,0,0,1-.829.48l1.534-3.151a1.478,1.478,0,0,1,1.328-.832H43.13c.8,0,.743-.646.743-1.443S43.927,0,43.13,0H34.861a4.359,4.359,0,0,0-3.922,2.455l-1.9,3.9a15.625,15.625,0,0,0-8.369-2.988V12.98s3.313-.3,5.322-.639l-2.327,3.918a19.438,19.438,0,0,0-19.23.143l.911,2.733a17.146,17.146,0,0,1,6.666-1.892,17.37,17.37,0,0,1,9.969,1.851L19.33,23.561a13.679,13.679,0,1,0,2.813,1.719l2.531-4.26c2.556,2.334,4.547,5.745,6.094,10.3.052.154,1.847,1.693,1.855,1.856l.227-.5c.234,4.4,3.687,4.481,3.687,4.481H49.449C54.393,18.338,74.311,13.8,77.607,12.844M21.84,35.988A8.2,8.2,0,1,1,16.5,28.329l-2.881,4.848a2.854,2.854,0,1,0,2.7,1.9L19.3,30.073a8.14,8.14,0,0,1,2.544,5.914m4.554-17.863,2.116-3.563a79.164,79.164,0,0,1,2.875,9.652,19.446,19.446,0,0,0-4.991-6.088" transform="translate(0 0)" fill="#0068b7"/>
        <path id="パス_187" data-name="パス 187" d="M98.641,35.137A13.667,13.667,0,1,0,112.307,48.8,13.666,13.666,0,0,0,98.641,35.137m0,21.84a8.173,8.173,0,1,1,8.173-8.173,8.174,8.174,0,0,1-8.173,8.173" transform="translate(-30.992 -12.815)" fill="#0068b7"/>
        <path id="パス_188" data-name="パス 188" d="M104.871,52.218a2.816,2.816,0,1,0,2.816,2.815,2.815,2.815,0,0,0-2.816-2.815" transform="translate(-37.222 -19.045)" fill="#0068b7"/>
      </g>
    </g>
  </g>
</svg>
