<svg id="癌" xmlns="http://www.w3.org/2000/svg" xmlns:xlink="http://www.w3.org/1999/xlink" width="39.446" height="39.446" viewBox="0 0 39.446 39.446">
  <defs>
    <clipPath id="clip-path">
      <rect id="長方形_414" data-name="長方形 414" width="39.446" height="39.446" fill="none"/>
    </clipPath>
  </defs>
  <g id="グループ_464" data-name="グループ 464" clip-path="url(#clip-path)">
    <path id="パス_200" data-name="パス 200" d="M29.053,20.589h4.581a2.978,2.978,0,1,0,0-1.731H29.053a9.334,9.334,0,0,0-2.119-5.123L30.172,10.5a2.932,2.932,0,0,0,3.5-.51l-.612-.612.613.611a2.991,2.991,0,1,0-4.723-.712l-3.237,3.237a9.335,9.335,0,0,0-5.123-2.118V5.812a2.978,2.978,0,1,0-1.731,0v4.581a9.329,9.329,0,0,0-5.122,2.119L10.5,9.275A3.019,3.019,0,1,0,9.275,10.5l3.238,3.237a9.321,9.321,0,0,0-2.118,5.122H5.812a2.978,2.978,0,1,0,0,1.731h4.582a9.325,9.325,0,0,0,2.118,5.12L9.275,28.947A3.019,3.019,0,1,0,10.5,30.171l3.238-3.238a9.321,9.321,0,0,0,5.121,2.119v4.582a2.978,2.978,0,1,0,1.731,0V29.052a9.323,9.323,0,0,0,5.122-2.118l3.237,3.238a3.022,3.022,0,1,0,1.224-1.224L26.934,25.71a9.321,9.321,0,0,0,2.119-5.121m6.169-.865a1.247,1.247,0,1,1,1.246,1.247,1.249,1.249,0,0,1-1.246-1.247m-8.931-.67a.671.671,0,1,1-.67-.671.67.67,0,0,1,.67.671M30.317,7.882a1.245,1.245,0,1,1,.364.882,1.24,1.24,0,0,1-.364-.882M21.1,14.7a1.381,1.381,0,1,1-1.381,1.381A1.381,1.381,0,0,1,21.1,14.7M18.475,2.978a1.247,1.247,0,1,1,1.247,1.246,1.249,1.249,0,0,1-1.247-1.246M7,8.765a1.248,1.248,0,1,1,.881.365A1.238,1.238,0,0,1,7,8.765M16.3,17.9a.919.919,0,1,1-.919-.919.919.919,0,0,1,.919.919M4.224,19.723a1.247,1.247,0,1,1-1.247-1.247,1.249,1.249,0,0,1,1.247,1.247M14.35,21.033a.27.27,0,1,1-.27-.27.27.27,0,0,1,.27.27M9.129,31.564a1.245,1.245,0,1,1-.365-.882,1.239,1.239,0,0,1,.365.882m8.466-6.8A1.406,1.406,0,1,1,19,23.358a1.406,1.406,0,0,1-1.406,1.406m3.375,11.7a1.247,1.247,0,1,1-1.247-1.246,1.25,1.25,0,0,1,1.247,1.246m-.249-10.514a.444.444,0,1,1,.444-.444.443.443,0,0,1-.444.444m.675-3.368a1.19,1.19,0,1,1,1.19,1.19,1.19,1.19,0,0,1-1.19-1.19M32.81,31.564a1.245,1.245,0,1,1-.364-.882,1.238,1.238,0,0,1,.364.882" fill="#3a92f4"/>
  </g>
</svg>
