<svg id="病気" xmlns="http://www.w3.org/2000/svg" xmlns:xlink="http://www.w3.org/1999/xlink" width="40.828" height="37.157" viewBox="0 0 40.828 37.157">
  <defs>
    <clipPath id="clip-path">
      <rect id="長方形_450" data-name="長方形 450" width="40.828" height="37.157" fill="none"/>
    </clipPath>
  </defs>
  <g id="グループ_598" data-name="グループ 598" clip-path="url(#clip-path)">
    <path id="パス_228" data-name="パス 228" d="M7.6,24.265a3.582,3.582,0,0,0,3.534-3.426,3.584,3.584,0,0,0-3.577-3.382A3.406,3.406,0,0,0,7.6,24.265m33.226.386V20.065a1.527,1.527,0,1,0-3.055,0v4.585H36.129V19.321c0-1.834-1.911-3.334-4.247-3.334H22.1V1.145a1.147,1.147,0,0,0-2.293,0v.639H12.037a.765.765,0,0,0,0,1.529h3.414a.759.759,0,0,0-.075.318v.9h-1.4a.715.715,0,0,0-.714.713V9.726a2.856,2.856,0,0,0,2.36,2.8,29.51,29.51,0,0,1-.579,3.532c-1.927.315-3.384,1.662-3.384,3.263v1.693h0v3.636h-8.6V14.713a1.528,1.528,0,1,0-3.056,0V37.156H3.056V28.727H19.81v8.408H22.1V28.727h15.67v8.43h3.055v-8.43h0V24.651ZM15.574,10.181V8.98h-1.2V7.834h1.2v-1.2h1.147v1.2h1.2V8.98h-1.2v1.2Zm4.235,5.806H15.9l-.063,0a30.223,30.223,0,0,0,.54-3.436,2.85,2.85,0,0,0,2.641-2.829V5.245a.715.715,0,0,0-.712-.713h-1.4v-.9a.759.759,0,0,0-.075-.318H19.81Z" transform="translate(0)" fill="#fff"/>
  </g>
</svg>
