<svg xmlns="http://www.w3.org/2000/svg" xmlns:xlink="http://www.w3.org/1999/xlink" width="48.482" height="36.27" viewBox="0 0 48.482 36.27">
  <defs>
    <clipPath id="clip-path">
      <rect id="長方形_589" data-name="長方形 589" width="48.482" height="36.27" fill="none"/>
    </clipPath>
  </defs>
  <g id="携行品" transform="translate(0 0)">
    <path id="パス_281" data-name="パス 281" d="M3.118,0,0,2.213l8.322,10.9,2.34-1.661Z" fill="#fff"/>
    <path id="パス_282" data-name="パス 282" d="M94.072,124.69,92.514,125.8l15.16,21.354-.023-1.185.706.628-.078-.942,1.14.655Z" transform="translate(-83.525 -112.575)" fill="#fff"/>
    <g id="グループ_884" data-name="グループ 884" transform="translate(0 0)">
      <g id="グループ_883" data-name="グループ 883" clip-path="url(#clip-path)">
        <path id="パス_283" data-name="パス 283" d="M292.886,125.555c-.473-2.131-3.582-3.486-5.78-3.893a4.75,4.75,0,0,0-4.837,2.668c-.475,1.319,3.984,8.186,4.152,9.234s-4.059,3.583-4.059,3.583a1.418,1.418,0,0,0,.011.723L270.8,144.39l.92.256-.561.808.97-.212-.394.816,11.791-6.638c.207.167.359.265.359.265s5.277-2.7,6.5-4.121,2.981-7.877,2.509-10.007" transform="translate(-244.483 -109.787)" fill="#fff"/>
        <path id="パス_284" data-name="パス 284" d="M203.5,194.595a3.62,3.62,0,0,0,3.529.6,2.294,2.294,0,0,0,1.109-1.415,2.958,2.958,0,0,0,2.123,1.347,3.29,3.29,0,0,0,2.519-1.134,3.668,3.668,0,0,0,1.466,2.632,4.027,4.027,0,0,0,3.237.2c-.91,1.753-1.15,3.094-.707,4a2.173,2.173,0,0,0,1.866,1.125.324.324,0,0,0,.05,0,.441.441,0,0,0,.048-.88,1.341,1.341,0,0,1-1.172-.637c-.371-.757.07-2.232,1.24-4.156a.441.441,0,0,0-.534-.642c-1.687.642-2.814.721-3.55.247-.689-.443-1.088-1.448-1.183-2.983a.441.441,0,0,0-.8-.229,3.074,3.074,0,0,1-2.412,1.577c-.93-.073-1.621-1.079-2.036-1.908a.441.441,0,0,0-.835.178c-.043.992-.323,1.629-.834,1.894a2.9,2.9,0,0,1-2.647-.556.441.441,0,1,0-.477.742" transform="translate(-183.545 -173.428)" fill="#fff"/>
      </g>
    </g>
  </g>
</svg>
