<svg xmlns="http://www.w3.org/2000/svg" xmlns:xlink="http://www.w3.org/1999/xlink" width="35" height="35" viewBox="0 0 35 35">
  <defs>
    <clipPath id="clip-path">
      <rect id="長方形_850" data-name="長方形 850" width="35" height="35" transform="translate(-0.201 -0.102)" fill="none"/>
    </clipPath>
  </defs>
  <g id="各種取引_信用に関する保険" data-name="各種取引・信用に関する保険" transform="translate(0.201 0.102)">
    <g id="グループ_1080" data-name="グループ 1080" clip-path="url(#clip-path)">
      <g id="グループ_1321" data-name="グループ 1321" transform="translate(3.798 6.898)">
        <path id="パス_328" data-name="パス 328" d="M45.4,19.438a4.25,4.25,0,0,0-1.161.828L40.73,23.773h0l-.03.029a1.266,1.266,0,0,0-.055,1.733c.017.02.036.04.055.059a1.266,1.266,0,0,0,1.791,0l1.929-1.93a4.192,4.192,0,0,0,.974.229,4.751,4.751,0,0,0,1.187-.021,4.9,4.9,0,0,0,1.285-.254,6.381,6.381,0,0,0,1.07-.5l.343.342c.038.037.912.912,1.358,1.358.079.079.146.144.191.191a1.428,1.428,0,0,1,.145.144L53.2,27.376a4.272,4.272,0,0,0,1.283-3.022L48.924,18.8a7.883,7.883,0,0,0-3.525.642" transform="translate(-31.635 -14.736)" fill="#fff"/>
        <path id="パス_329" data-name="パス 329" d="M32.629,65.663a1.261,1.261,0,0,0-1.784,0l-.366.366a1.261,1.261,0,0,0-1.785-1.782,1.261,1.261,0,0,0-1.783-1.783,1.261,1.261,0,1,0-1.783-1.783l-1.1,1.1a1.261,1.261,0,0,0,1.783,1.784,1.261,1.261,0,0,0,1.784,1.783,1.261,1.261,0,0,0,1.783,1.783l.367-.367a1.261,1.261,0,0,0,1.785,1.783l1.1-1.1a1.262,1.262,0,0,0,0-1.784" transform="translate(-18.555 -47.309)" fill="#fff"/>
        <path id="パス_330" data-name="パス 330" d="M91.225,6.708,84.733.216a.737.737,0,0,0-1.042,0L81.609,2.3a.737.737,0,0,0,0,1.042L88.1,9.832a.735.735,0,0,0,1.042,0L91.225,7.75a.735.735,0,0,0,0-1.041m-1.85,1.44a.792.792,0,1,1,0-1.12.792.792,0,0,1,0,1.12" transform="translate(-63.845)" fill="#fff"/>
        <path id="パス_331" data-name="パス 331" d="M9.833,3.151,7.751,1.069a.737.737,0,0,0-1.042,0L.216,7.561a.736.736,0,0,0,0,1.041L2.3,10.685a.737.737,0,0,0,1.042,0L9.833,4.193a.736.736,0,0,0,0-1.042M3.187,9a.792.792,0,1,1,0-1.12.793.793,0,0,1,0,1.12" transform="translate(0 -0.669)" fill="#fff"/>
        <path id="パス_332" data-name="パス 332" d="M38.681,29.364l-.4-.4-3.908-3.908-.263.117-.287.1-.021.006a9.764,9.764,0,0,1-1.452.292,5.765,5.765,0,0,1-1.45.023,5.36,5.36,0,0,1-.555-.091l-1.5,1.5a2.309,2.309,0,0,1-3.262,0c-.031-.032-.062-.064-.09-.1l-.01-.011a2.309,2.309,0,0,1-.445-2.289l.575-.9h0L29.123,20.2a5.57,5.57,0,0,1,.448-.4,8.555,8.555,0,0,0-2.01-.151L22,25.207a4.651,4.651,0,0,0,1.128,2.8A2.3,2.3,0,0,1,26.969,29.2a2.29,2.29,0,0,1,1.783,1.784,2.288,2.288,0,0,1,1.657,1.368,2.3,2.3,0,0,1,1.654,3.925l-.367.368.184.184a1.261,1.261,0,0,0,1.784-1.783l.367.368a1.261,1.261,0,1,0,1.783-1.784A1.261,1.261,0,1,0,37.6,31.847a1.261,1.261,0,0,0,1.783-1.783Z" transform="translate(-17.255 -15.404)" fill="#fff"/>
      </g>
    </g>
  </g>
</svg>
