<svg xmlns="http://www.w3.org/2000/svg" xmlns:xlink="http://www.w3.org/1999/xlink" width="35" height="35" viewBox="0 0 35 35">
  <defs>
    <clipPath id="clip-path">
      <rect id="長方形_410" data-name="長方形 410" width="35" height="35" transform="translate(0.372 -0.285)" fill="none"/>
    </clipPath>
  </defs>
  <g id="自動車に関する保険" transform="translate(-0.372 0.285)">
    <g id="グループ_456" data-name="グループ 456" transform="translate(0 0)" clip-path="url(#clip-path)">
      <g id="グループ_1324" data-name="グループ 1324" transform="translate(2.372 5.715)">
        <path id="パス_189" data-name="パス 189" d="M2.061,26.259c.138-.3.4-.8.866-1.67.213-.4.451-.844.7-1.3H1.485a1.484,1.484,0,1,0,0,2.968Z" transform="translate(0 -17.697)" fill="#fff"/>
        <path id="パス_190" data-name="パス 190" d="M115.058,23.291h-2.137c.245.454.483.9.7,1.3.464.872.727,1.369.866,1.67h.576a1.484,1.484,0,1,0,0-2.968" transform="translate(-85.799 -17.697)" fill="#fff"/>
        <path id="パス_191" data-name="パス 191" d="M9.849,83.236a2,2,0,1,0,4,0V81.344h-4Z" transform="translate(-7.483 -61.807)" fill="#fff"/>
        <path id="パス_192" data-name="パス 192" d="M101.486,83.236a2,2,0,0,0,4,0V81.344h-4Z" transform="translate(-77.11 -61.807)" fill="#fff"/>
        <path id="パス_193" data-name="パス 193" d="M30.763,8.935c.1.03-3.7-6.955-3.887-7.332A3.145,3.145,0,0,0,24.051,0H12.03A3.147,3.147,0,0,0,9.2,1.6c-.182.377-3.985,7.362-3.886,7.332,0,0-1.231,1.228-1.324,1.326a1.865,1.865,0,0,0-.481,1.52v5.558c0,1.037.185,1.605,1.407,1.605H31.161c1.222,0,1.408-.568,1.408-1.605V11.781a1.864,1.864,0,0,0-.483-1.52c-.091-.1-1.323-1.326-1.323-1.326M8.467,6.793s2.444-4.4,2.588-4.69a1.9,1.9,0,0,1,1.67-.849h10.63a1.9,1.9,0,0,1,1.67.849c.146.288,2.589,4.69,2.589,4.69a.781.781,0,0,1-.64,1.16H9.107a.781.781,0,0,1-.639-1.16m-.326,9.79a2.246,2.246,0,1,1,2.245-2.245,2.245,2.245,0,0,1-2.245,2.245m13.309.607a.3.3,0,0,1-.3.3H14.929a.3.3,0,0,1-.3-.3V14.448a.3.3,0,0,1,.3-.295h6.225a.3.3,0,0,1,.3.295Zm6.491-.607a2.246,2.246,0,1,1,2.247-2.245,2.246,2.246,0,0,1-2.247,2.245" transform="translate(-2.669)" fill="#fff"/>
      </g>
    </g>
  </g>
</svg>
