<svg id="ゴルファー" xmlns="http://www.w3.org/2000/svg" xmlns:xlink="http://www.w3.org/1999/xlink" width="32.897" height="33.563" viewBox="0 0 32.897 33.563">
  <defs>
    <clipPath id="clip-path">
      <rect id="長方形_411" data-name="長方形 411" width="32.897" height="33.563" fill="none"/>
    </clipPath>
  </defs>
  <g id="グループ_458" data-name="グループ 458" clip-path="url(#clip-path)">
    <path id="パス_194" data-name="パス 194" d="M19.191,17.011v4.408c1.112.423,1.833,1.094,1.833,1.853,0,1.253-1.963,2.275-4.417,2.317-.051,0-.106,0-.16,0a7.6,7.6,0,0,1-2.969-.556c-.983-.424-1.607-1.057-1.607-1.764s.624-1.339,1.607-1.764a6.061,6.061,0,0,1,.793-.269v2.48a5.211,5.211,0,0,0,2.348.519c.044,0,.087,0,.127,0V10.579l9.073-4.721L14.272,0V16.966C6.217,17.506,0,21,0,25.226c0,4.6,7.364,8.337,16.449,8.337S32.9,29.83,32.9,25.226c0-4.13-5.929-7.553-13.706-8.215" fill="#3a92f4"/>
  </g>
</svg>
