<svg xmlns="http://www.w3.org/2000/svg" xmlns:xlink="http://www.w3.org/1999/xlink" width="90" height="69" viewBox="0 0 90 69">
  <defs>
    <clipPath id="clip-path">
      <rect id="長方形_1005" data-name="長方形 1005" width="90" height="69" transform="translate(1013 581)" fill="none" stroke="#707070" stroke-width="1"/>
    </clipPath>
    <clipPath id="clip-path-2">
      <rect id="長方形_414" data-name="長方形 414" width="64" height="64" fill="none"/>
    </clipPath>
  </defs>
  <g id="癌" transform="translate(-1013 -581)">
    <g id="癌-2" data-name="癌" clip-path="url(#clip-path)">
      <g id="癌-3" data-name="癌" transform="translate(1026 585)">
        <g id="グループ_464" data-name="グループ 464" clip-path="url(#clip-path-2)">
          <path id="パス_200" data-name="パス 200" d="M47.137,33.4H54.57a4.832,4.832,0,1,0,0-2.808H47.137A15.144,15.144,0,0,0,43.7,22.285l5.253-5.253a4.757,4.757,0,0,0,5.675-.828l-.993-.993.994.991a4.853,4.853,0,1,0-7.663-1.156L41.715,20.3A15.145,15.145,0,0,0,33.4,16.863V9.43a4.832,4.832,0,1,0-2.808,0v7.433a15.137,15.137,0,0,0-8.31,3.439l-5.253-5.253a4.9,4.9,0,1,0-1.985,1.985L20.3,22.287a15.124,15.124,0,0,0-3.437,8.31H9.43a4.832,4.832,0,1,0,0,2.808h7.434A15.13,15.13,0,0,0,20.3,41.712l-5.254,5.254a4.9,4.9,0,1,0,1.985,1.985L22.287,43.7A15.123,15.123,0,0,0,30.6,47.136V54.57a4.832,4.832,0,1,0,2.808,0V47.136a15.126,15.126,0,0,0,8.31-3.437l5.253,5.254a4.9,4.9,0,1,0,1.987-1.985L43.7,41.713A15.122,15.122,0,0,0,47.137,33.4M57.146,32a2.023,2.023,0,1,1,2.022,2.024A2.027,2.027,0,0,1,57.146,32m-14.49-1.087a1.088,1.088,0,1,1-1.087-1.089,1.087,1.087,0,0,1,1.087,1.089m6.532-18.126a2.02,2.02,0,1,1,.591,1.431,2.011,2.011,0,0,1-.591-1.431M34.24,23.858A2.24,2.24,0,1,1,32,26.1a2.24,2.24,0,0,1,2.24-2.24M29.976,4.832A2.024,2.024,0,1,1,32,6.854a2.027,2.027,0,0,1-2.024-2.022M11.358,14.221a2.024,2.024,0,1,1,1.43.592,2.009,2.009,0,0,1-1.43-.592M26.441,29.035a1.492,1.492,0,1,1-1.492-1.492,1.491,1.491,0,0,1,1.492,1.492M6.854,32a2.023,2.023,0,1,1-2.022-2.024A2.026,2.026,0,0,1,6.854,32m16.428,2.124a.439.439,0,1,1-.439-.439.438.438,0,0,1,.439.439m-8.47,17.086a2.02,2.02,0,1,1-.592-1.431,2.01,2.01,0,0,1,.592,1.431M28.547,40.179A2.281,2.281,0,1,1,30.828,37.9a2.281,2.281,0,0,1-2.281,2.281m5.476,18.989A2.024,2.024,0,1,1,32,57.146a2.028,2.028,0,0,1,2.024,2.022m-.4-17.059a.72.72,0,1,1,.72-.72.72.72,0,0,1-.72.72m1.1-5.465a1.93,1.93,0,1,1,1.93,1.93,1.931,1.931,0,0,1-1.93-1.93M53.233,51.212a2.02,2.02,0,1,1-.591-1.431,2.009,2.009,0,0,1,.591,1.431" fill="#f39800"/>
        </g>
      </g>
    </g>
  </g>
</svg>
