<svg xmlns="http://www.w3.org/2000/svg" xmlns:xlink="http://www.w3.org/1999/xlink" width="90" height="69" viewBox="0 0 90 69">
  <defs>
    <clipPath id="clip-path">
      <rect id="長方形_1007" data-name="長方形 1007" width="90" height="69" transform="translate(1392 574)" fill="none" stroke="#707070" stroke-width="1"/>
    </clipPath>
    <clipPath id="clip-path-2">
      <rect id="長方形_418" data-name="長方形 418" width="68.127" height="51" fill="none"/>
    </clipPath>
  </defs>
  <g id="グループ生命" transform="translate(-1392 -574)" clip-path="url(#clip-path)">
    <g id="グループ生命-2" data-name="グループ生命" transform="translate(1403 592)">
      <g id="グループ_473" data-name="グループ 473" clip-path="url(#clip-path-2)">
        <path id="パス_212" data-name="パス 212" d="M175.73,8.539A8.77,8.77,0,0,0,166.765,0a9.006,9.006,0,0,0-8.2,5.08,9.006,9.006,0,0,0-8.2-5.08A8.77,8.77,0,0,0,141.4,8.539a8.778,8.778,0,0,0,2.867,6.274c1.325,1.229,13.655,12.391,13.779,12.5a.769.769,0,0,0,1.032,0c.124-.112,12.454-11.274,13.779-12.5a8.778,8.778,0,0,0,2.867-6.274" transform="translate(-124.504)" fill="#f39800"/>
        <path id="パス_213" data-name="パス 213" d="M27.609,54.38l0-.015h0a3.462,3.462,0,0,0-1-1.7L15.181,42.091a3.384,3.384,0,0,0-4.82.194,3.477,3.477,0,0,0,.22,4.872l7.576,7.017L17.2,56.03l-7.97-7.381a5.523,5.523,0,0,1-.349-7.739A5.373,5.373,0,0,1,10,39.973L6.719,27.38a3.43,3.43,0,0,0-4.147-2.516A3.43,3.43,0,0,0,.106,29.041L7.584,57.768a3.46,3.46,0,0,0,1.59,2.139l9.689,7.229L20.286,72.8H31.472L27.659,54.62q-.021-.12-.05-.24" transform="translate(0 -21.802)" fill="#f39800"/>
        <path id="パス_214" data-name="パス 214" d="M335.588,24.864a3.43,3.43,0,0,0-4.147,2.516l-3.278,12.593a5.364,5.364,0,0,1,1.118.937,5.523,5.523,0,0,1-.349,7.739l-7.97,7.381L320,54.176l7.576-7.017a3.477,3.477,0,0,0,.22-4.872,3.384,3.384,0,0,0-4.82-.194l-11.42,10.577a3.465,3.465,0,0,0-1,1.7h0l0,.015c-.02.079-.036.159-.05.24L306.688,72.8h11.186l1.424-5.667,9.688-7.229a3.459,3.459,0,0,0,1.59-2.139l7.478-28.727a3.43,3.43,0,0,0-2.466-4.177" transform="translate(-270.032 -21.803)" fill="#f39800"/>
      </g>
    </g>
  </g>
</svg>
