<svg xmlns="http://www.w3.org/2000/svg" xmlns:xlink="http://www.w3.org/1999/xlink" width="40.753" height="35.9" viewBox="0 0 40.753 35.9">
  <defs>
    <clipPath id="clip-path">
      <rect id="長方形_390" data-name="長方形 390" width="40.753" height="35.9" fill="none"/>
    </clipPath>
  </defs>
  <g id="事故" clip-path="url(#clip-path)">
    <path id="パス_113" data-name="パス 113" d="M18.394,1.144.31,32.467A2.289,2.289,0,0,0,2.292,35.9H38.46a2.289,2.289,0,0,0,1.982-3.433L22.358,1.144a2.289,2.289,0,0,0-3.964,0" transform="translate(0.001)" fill="#d7000f"/>
    <path id="パス_114" data-name="パス 114" d="M274.26,414.083a2.536,2.536,0,1,1-2.536-2.536,2.536,2.536,0,0,1,2.536,2.536" transform="translate(-251.348 -384.272)" fill="#fff"/>
    <path id="パス_115" data-name="パス 115" d="M264.392,133.521a3.318,3.318,0,0,0-6.58,0c0,.263.072.552.1.871l1.938,12.506a1.264,1.264,0,0,0,2.507,0l1.938-12.546c.027-.2.093-.6.1-.832" transform="translate(-240.726 -121.974)"/>
    <path id="パス_116" data-name="パス 116" d="M264.392,133.521a3.318,3.318,0,0,0-6.58,0c0,.263.072.552.1.871l1.938,12.506a1.264,1.264,0,0,0,2.507,0l1.938-12.546c.027-.2.093-.6.1-.832" transform="translate(-240.726 -121.974)" fill="#fff"/>
  </g>
</svg>
