<svg id="従業員の海外赴任に関する保険" xmlns="http://www.w3.org/2000/svg" xmlns:xlink="http://www.w3.org/1999/xlink" width="35" height="35" viewBox="0 0 35 35">
  <defs>
    <clipPath id="clip-path">
      <rect id="長方形_849" data-name="長方形 849" width="35" height="35" fill="none"/>
    </clipPath>
  </defs>
  <g id="グループ_1077" data-name="グループ 1077" clip-path="url(#clip-path)">
    <g id="グループ_1319" data-name="グループ 1319" transform="translate(4)">
      <path id="パス_325" data-name="パス 325" d="M68.823,6.336a3.168,3.168,0,1,0-3.168-3.168,3.168,3.168,0,0,0,3.168,3.168" transform="translate(-60.894)" fill="#fff"/>
      <path id="パス_326" data-name="パス 326" d="M101.416,103.781V104.8h1.149v-1.023h-1.149Z" transform="translate(-94.062 -96.254)" fill="#fff"/>
      <path id="パス_327" data-name="パス 327" d="M18.271,100.548h0a8.3,8.3,0,0,0-5.279,1.888l.388.865a7.41,7.41,0,0,1,3.076-1.619,11.685,11.685,0,0,0-1.058,1.132,10.98,10.98,0,0,0-1.114,1.648H13.9l.675,1.508c.083-.206.17-.408.263-.6h2.981v3.012H15.653l.406.907h1.758v3.42H14.581a7.188,7.188,0,0,1-.491-1.44,1.7,1.7,0,0,1-.6-.751L13,109.694c0,.013,0,.026,0,.04a8.128,8.128,0,0,0,.591,2.973H11.912a7.4,7.4,0,0,1-.587-1.21c.04-.695.084-1.445.129-2.21h1.31l-.534-.907h-.723c.047-.812.094-1.62.139-2.374l2.317,4.585a1.082,1.082,0,0,0,1.9-1.039c-.032-.066-4.04-8.726-4.04-8.726h0a1.3,1.3,0,0,0-1.176-.89c-.146-.022-.47-.04-.889-.051L8.5,103.5V101.53H7.356V103.5L6.108,99.886c-.419.012-.742.029-.889.051a1.374,1.374,0,0,0-1.247.961h0L.113,109.706a1.081,1.081,0,0,0,1.916,1l2.164-4.513c.171,2.756.381,6.146.486,7.832h0s.374,12.385.376,12.458a1.126,1.126,0,0,0,2.244.065l.74-11.128c.2,2.267.942,10.882.944,10.946a1.126,1.126,0,0,0,2.243.064l-.051-12.366c.012-.221.027-.473.043-.749.017.026.032.054.048.08s.014.025.023.037a8.333,8.333,0,1,0,6.981-12.881m-5.714,13.068h1.471a7.9,7.9,0,0,0,2.034,2.353,7.438,7.438,0,0,1-3.5-2.353m5.26,2.418a7.373,7.373,0,0,1-2.725-2.418h2.725Zm0-11.572H15.334a10.212,10.212,0,0,1,.766-1.073,10.626,10.626,0,0,1,1.5-1.507c.076-.062.148-.118.213-.168Zm6.974.871a7.4,7.4,0,0,1,.886,3.049h-2.2a10.041,10.041,0,0,0-.776-3.012h1.908a.454.454,0,0,0,.181-.037m-.557-.871H22.259a10.958,10.958,0,0,0-1.115-1.647,11.546,11.546,0,0,0-1.058-1.132,7.439,7.439,0,0,1,4.147,2.779m-5.509-2.749a10.589,10.589,0,0,1,2.483,2.749H18.725Zm0,3.656h2.983a9.136,9.136,0,0,1,.859,3.012H18.725Zm0,3.919h3.894c0,.038,0,.075,0,.113l0,.043s0,.017,0,.066.006.125.005.224a7.231,7.231,0,0,1-.672,2.973H18.725Zm0,4.327H21.45a7.365,7.365,0,0,1-2.725,2.418Zm1.755,2.354a7.9,7.9,0,0,0,2.034-2.354h1.472a7.446,7.446,0,0,1-3.506,2.354m4.122-3.262H22.948a8.148,8.148,0,0,0,.592-2.973c0-.181-.008-.3-.012-.351,0-.033,0-.063,0-.095h2.158a7.4,7.4,0,0,1-1.055,3.422l-.027,0" transform="translate(0 -92.642)" fill="#fff"/>
    </g>
  </g>
</svg>
