<svg id="グループ_797" data-name="グループ 797" xmlns="http://www.w3.org/2000/svg" xmlns:xlink="http://www.w3.org/1999/xlink" width="24.771" height="32.306" viewBox="0 0 24.771 32.306">
  <defs>
    <clipPath id="clip-path">
      <rect id="長方形_572" data-name="長方形 572" width="24.771" height="32.306" fill="none"/>
    </clipPath>
  </defs>
  <g id="グループ_796" data-name="グループ 796" clip-path="url(#clip-path)">
    <path id="パス_275" data-name="パス 275" d="M2.215,1.369C0,2.809-.441,7.309.4,10.976a33.13,33.13,0,0,0,4.38,10.3,34.407,34.407,0,0,0,7.614,8.2c3.007,2.261,7.294,3.7,9.513,2.258a11.243,11.243,0,0,0,2.866-3.074l-1.193-1.839L20.3,21.759c-.244-.376-1.772-.032-2.548.408a7.394,7.394,0,0,0-2.012,2.185c-.718.415-1.32,0-2.576-.577-1.545-.71-3.281-2.918-4.663-4.918-1.262-2.077-2.57-4.563-2.589-6.263-.016-1.383-.148-2.1.524-2.588a7.391,7.391,0,0,0,2.816-.945c.718-.53,1.655-1.785,1.411-2.16L7.383,1.844,6.19.005A11.245,11.245,0,0,0,2.215,1.369" transform="translate(0 0)"/>
  </g>
</svg>
