<svg xmlns="http://www.w3.org/2000/svg" xmlns:xlink="http://www.w3.org/1999/xlink" width="35" height="35" viewBox="0 0 35 35">
  <defs>
    <clipPath id="clip-path">
      <rect id="長方形_848" data-name="長方形 848" width="35" height="35" transform="translate(-0.368 -0.199)" fill="none"/>
    </clipPath>
  </defs>
  <g id="賠償責任に関する保険" transform="translate(0.368 0.199)">
    <g id="グループ_1074" data-name="グループ 1074" transform="translate(0 0)" clip-path="url(#clip-path)">
      <g id="グループ_1322" data-name="グループ 1322" transform="translate(2.632 4.801)">
        <path id="パス_321" data-name="パス 321" d="M28.422,52.761l-6.247-4.82a1.137,1.137,0,1,0-1.389,1.8l6.247,4.819a1.137,1.137,0,1,0,1.389-1.8" transform="translate(-15.692 -36.799)" fill="#fff"/>
        <path id="パス_322" data-name="パス 322" d="M57.588,2.037l6.248,4.819a1.137,1.137,0,1,0,1.389-1.8L58.977.237a1.137,1.137,0,0,0-1.389,1.8" transform="translate(-44.081)" fill="#fff"/>
        <rect id="長方形_846" data-name="長方形 846" width="9.762" height="8.024" transform="translate(7.001 10.361) rotate(-52.35)" fill="#fff"/>
        <path id="パス_323" data-name="パス 323" d="M83.248,55.165,72.638,46.98,70.76,49.415,81.37,57.6a1.537,1.537,0,0,0,1.878-2.435" transform="translate(-54.583 -36.239)" fill="#fff"/>
        <path id="パス_324" data-name="パス 324" d="M13.355,89.446a1.477,1.477,0,0,0-1.477-1.477H4.939a1.477,1.477,0,0,0-1.477,1.477v1.1h9.893Z" transform="translate(-2.671 -67.857)" fill="#fff"/>
        <rect id="長方形_847" data-name="長方形 847" width="11.476" height="1.991" transform="translate(0 23.612)" fill="#fff"/>
      </g>
    </g>
  </g>
</svg>
