<svg xmlns="http://www.w3.org/2000/svg" xmlns:xlink="http://www.w3.org/1999/xlink" width="90" height="69" viewBox="0 0 90 69">
  <defs>
    <clipPath id="clip-path">
      <rect id="長方形_1003" data-name="長方形 1003" width="90" height="69" transform="translate(633 574)" fill="none" stroke="#707070" stroke-width="1"/>
    </clipPath>
    <clipPath id="clip-path-2">
      <rect id="長方形_412" data-name="長方形 412" width="66.504" height="65.212" fill="none"/>
    </clipPath>
  </defs>
  <g id="海外旅行" transform="translate(-633 -574)" clip-path="url(#clip-path)">
    <g id="海外旅行-2" data-name="海外旅行" transform="translate(645 577.788)" clip-path="url(#clip-path-2)">
      <path id="パス_195" data-name="パス 195" d="M24.024,54.721a5.473,5.473,0,0,1,.419-2.813,31.432,31.432,0,0,1-4.43-5.273H27.5v2.057a6.206,6.206,0,0,1,2.855-.7A6.123,6.123,0,0,1,31,48.03v-1.4h4.58l3.006-3.5H31V37.427l-2.569-1.787a6.489,6.489,0,0,1-.933-.791v8.284H17.984A30.958,30.958,0,0,1,14.787,31H25.654a6.591,6.591,0,0,1,.5-3.5H14.787a30.917,30.917,0,0,1,3.645-13H27.5V25.419a6.575,6.575,0,0,1,3.5-1.9V14.5h9.069A30.905,30.905,0,0,1,43.7,27.271l6.43,2.412.847-.986.131-.131c.332-.332.729-.692,1.178-1.065H47.223a34.583,34.583,0,0,0-2.694-11.814c-.165-.39-.342-.787-.528-1.184h6.346a25.617,25.617,0,0,1,4.409,11.2,23.61,23.61,0,0,1,3.268-1.762A29.272,29.272,0,0,0,32.328.16a29.558,29.558,0,0,0-6.152,0A29.255,29.255,0,0,0,0,29.251,29.254,29.254,0,0,0,25.973,58.32a5.489,5.489,0,0,1-1.948-3.6M47.4,11H42.114a34.953,34.953,0,0,0-4.9-6.237A25.786,25.786,0,0,1,47.4,11M31,4.024A31.486,31.486,0,0,1,37.889,11H31Zm-3.5,0V11H20.615A31.48,31.48,0,0,1,27.5,4.024m-6.21.738A34.963,34.963,0,0,0,16.39,11H11.108A25.782,25.782,0,0,1,21.291,4.762M8.157,14.5H14.5c-.186.4-.363.794-.528,1.184A34.582,34.582,0,0,0,11.282,27.5H3.563a25.616,25.616,0,0,1,4.595-13M7.574,43.132A25.673,25.673,0,0,1,3.563,31h7.719a34.582,34.582,0,0,0,2.694,11.814c.043.1.089.209.135.316Zm2.7,3.5h5.6a34.889,34.889,0,0,0,5.418,7.106,25.7,25.7,0,0,1-11.018-7.106" transform="translate(0 0.001)" fill="#009e96"/>
      <path id="パス_196" data-name="パス 196" d="M227.554,245.187a1.918,1.918,0,0,1-1.629-.925l-2.056-3.3-1.242.638a2.713,2.713,0,0,1-1.242.343,1.675,1.675,0,0,1-1.45-.787A2.1,2.1,0,0,1,220.03,239l.638-1.242-3.3-2.056a1.9,1.9,0,0,1-.345-3l.425-.425a2.527,2.527,0,0,1,1.757-.7,2.321,2.321,0,0,1,.877.166l3.484,1.414,9.436-11-13.661-9.5a3.111,3.111,0,0,1-1.017-3.787l.1-.223a2.922,2.922,0,0,1,2.644-1.662,2.823,2.823,0,0,1,1,.18l18.007,6.753,2.4-2.8.037-.037c2.017-2.017,6.462-4.812,9.56-4.812a3.261,3.261,0,0,1,2.4.882c1.2,1.2,1.168,3.345-.093,6.2a20.518,20.518,0,0,1-3.838,5.76l-.037.037-2.8,2.4,6.753,18.007a2.911,2.911,0,0,1-1.482,3.639l-.222.1a2.932,2.932,0,0,1-1.253.274h0a3.114,3.114,0,0,1-2.534-1.291l-9.5-13.661-10.995,9.436,1.414,3.484a2.527,2.527,0,0,1-.534,2.635l-.425.425a1.935,1.935,0,0,1-1.373.58" transform="translate(-188.847 -179.975)" fill="#009e96"/>
    </g>
  </g>
</svg>
