<svg xmlns="http://www.w3.org/2000/svg" xmlns:xlink="http://www.w3.org/1999/xlink" width="21.722" height="26.403" viewBox="0 0 21.722 26.403">
  <defs>
    <clipPath id="clip-path">
      <rect id="長方形_416" data-name="長方形 416" width="21.722" height="26.403" fill="none"/>
    </clipPath>
  </defs>
  <g id="グループ_469" data-name="グループ 469" transform="translate(0)">
    <g id="グループ_468" data-name="グループ 468" transform="translate(0)" clip-path="url(#clip-path)">
      <path id="パス_206" data-name="パス 206" d="M20.65,8.428s-.733,2.932-1.989,2.932c-1.757,0-1.78-2.3.1-3.979,2.255-2,1.675-6.908-2.042-7.381,1.728,2.356.041,5.838-2.146,4.241-1.17-.855.157-2.3.942-2.618C13,.084,11.185,2.711,11.993,5.271c.576,1.822-.269,2.292-.943,2.426C9.8,7.948,9.03,6.748,8.872,5.963a4.081,4.081,0,0,0-1.5,5.187L0,18.516l1.5,1.5,8.627-8.619,8.619,8.619,1.5-1.5-1.8-1.8c5.728-2.7,2.206-8.288,2.206-8.288" fill="#fff"/>
      <path id="パス_207" data-name="パス 207" d="M15.106,68.157v6.785h5.346V70.377h3.322v4.565H29.12V68.157l-7-7Z" transform="translate(-11.99 -48.539)" fill="#fff"/>
    </g>
  </g>
</svg>
