<svg xmlns="http://www.w3.org/2000/svg" xmlns:xlink="http://www.w3.org/1999/xlink" width="43.065" height="42.213" viewBox="0 0 43.065 42.213">
  <defs>
    <clipPath id="clip-path">
      <rect id="長方形_443" data-name="長方形 443" width="43.065" height="42.213" fill="none"/>
    </clipPath>
  </defs>
  <g id="傷害" clip-path="url(#clip-path)">
    <path id="パス_215" data-name="パス 215" d="M32.4,51.907a.85.85,0,0,1-.287.191.882.882,0,0,1-.5.048.863.863,0,0,1-.449-.239l-6.442-6.442a.85.85,0,0,1-.191-.289.885.885,0,0,1-.048-.5.856.856,0,0,1,.239-.448L38.034,30.916l-1.99-1.989L22.73,42.241a3.683,3.683,0,0,0,0,5.213L29.172,53.9a3.654,3.654,0,0,0,1.22.81,3.683,3.683,0,0,0,3.993-.81L47.7,40.583l-1.99-1.99Z" transform="translate(-14.366 -19.195)" fill="#fff"/>
    <path id="パス_216" data-name="パス 216" d="M21.463,94.455a1.031,1.031,0,0,0-.2,1.416l1.149,1.149a1.031,1.031,0,0,0,1.416-.2l2.155-2.155L23.619,92.3Z" transform="translate(-13.976 -61.246)" fill="#fff"/>
    <path id="パス_217" data-name="パス 217" d="M0,111.677l2.132.427,5.5-5.5-1.28-1.279Z" transform="translate(0 -69.89)" fill="#fff"/>
    <path id="パス_218" data-name="パス 218" d="M69.42,11.771a2.513,2.513,0,0,0-3.554,3.554L78.281,27.739a2.513,2.513,0,0,0,3.554-3.554Z" transform="translate(-43.217 -7.322)" fill="#fff"/>
    <path id="パス_219" data-name="パス 219" d="M103.258,7.308,96.686.737A2.512,2.512,0,0,0,93.133,4.29l.68.68-1.99,1.99,1.99,1.99L95.8,6.96l1.232,1.231-1.99,1.99,1.99,1.99,1.989-1.99.68.68a2.513,2.513,0,1,0,3.554-3.554" transform="translate(-60.929 0)" fill="#fff"/>
    <rect id="長方形_440" data-name="長方形 440" width="1.206" height="3.364" transform="matrix(0.707, -0.707, 0.707, 0.707, 23.655, 19.879)" fill="#fff"/>
    <rect id="長方形_441" data-name="長方形 441" width="1.206" height="3.365" transform="translate(20.154 23.38) rotate(-44.977)" fill="#fff"/>
    <rect id="長方形_442" data-name="長方形 442" width="1.206" height="3.365" transform="translate(16.794 26.739) rotate(-45)" fill="#fff"/>
  </g>
</svg>
