<svg xmlns="http://www.w3.org/2000/svg" xmlns:xlink="http://www.w3.org/1999/xlink" width="90" height="77" viewBox="0 0 90 77">
  <defs>
    <clipPath id="clip-path">
      <rect id="長方形_999" data-name="長方形 999" width="90" height="77" transform="translate(1013 412)" fill="none" stroke="#707070" stroke-width="1"/>
    </clipPath>
  </defs>
  <g id="寮_社宅の保険" data-name="寮・社宅の保険" transform="translate(-1013 -412)" clip-path="url(#clip-path)">
    <path id="寮_社宅の保険-2" data-name="寮・社宅の保険" d="M22.77,42.939h3.723v4.74H22.77ZM6.926,42.692h3.723v4.741H6.926Zm31.686,0h3.724v4.741H38.612ZM22.77,31.05h3.723v4.742H22.77ZM6.926,30.8h3.723v4.74H6.926Zm31.686,0h3.724v4.74H38.612ZM22.77,19.162h3.723V23.9H22.77Zm15.842-.246h3.724v4.741H38.612ZM22.77,7.275h3.723v4.74H22.77ZM14.838,0V22.427H0V55H49.261V10.386H34.424V0Z" transform="translate(1033 434)" fill="#e2608e"/>
  </g>
</svg>
