<svg xmlns="http://www.w3.org/2000/svg" xmlns:xlink="http://www.w3.org/1999/xlink" width="41.406" height="32.922" viewBox="0 0 41.406 32.922">
  <defs>
    <clipPath id="clip-path">
      <rect id="長方形_1033" data-name="長方形 1033" width="41.406" height="32.922" transform="translate(0 0)" fill="none"/>
    </clipPath>
  </defs>
  <g id="フリーコール" transform="translate(0 0)">
    <g id="グループ_1480" data-name="グループ 1480" clip-path="url(#clip-path)">
      <path id="パス_418" data-name="パス 418" d="M29.831,15.479h4.512a.589.589,0,1,0,0-1.177H29.831a.589.589,0,1,0,0,1.177" fill="#1a1311"/>
      <path id="パス_419" data-name="パス 419" d="M22.972,22.653h4.512a.589.589,0,1,0,0-1.177H22.972a.589.589,0,1,0,0,1.177" fill="#1a1311"/>
      <path id="パス_420" data-name="パス 420" d="M19.785,12.045H15.89a.589.589,0,1,0,0,1.177h3.286c-.137,1.843-.964,2.861-2.889,3.646a.589.589,0,0,0,.445,1.09,5.136,5.136,0,0,0,3.642-5.324.59.59,0,0,0-.589-.589" fill="#1a1311"/>
      <path id="パス_421" data-name="パス 421" d="M19.74,19.4H15.891a.588.588,0,1,0,0,1.176h3.262v2.9H15.891a.589.589,0,1,0,0,1.177H19.74a.588.588,0,0,0,.589-.589V19.985a.588.588,0,0,0-.589-.588" fill="#1a1311"/>
      <path id="パス_422" data-name="パス 422" d="M23.47,15.332V12.367a.588.588,0,1,0-1.176,0v2.965a.588.588,0,1,0,1.176,0" fill="#1a1311"/>
      <path id="パス_423" data-name="パス 423" d="M23.951,17.993c2.827-.463,3.325-1.783,3.325-4.385V12.367a.587.587,0,1,0-1.175,0v1.241c0,2.269-.276,2.887-2.34,3.224a.588.588,0,0,0,.19,1.161" fill="#1a1311"/>
      <path id="パス_424" data-name="パス 424" d="M29.993,19.719a9.486,9.486,0,0,1-.774,4.686.589.589,0,1,0,1.047.539,10.621,10.621,0,0,0,.906-5.225.59.59,0,0,0-1.179,0" fill="#1a1311"/>
      <path id="パス_425" data-name="パス 425" d="M34.841,21.405a.588.588,0,0,0-.713.429,3.283,3.283,0,0,1-1.232,2V19.587a.588.588,0,0,0-1.176,0v5.088a.581.581,0,0,0,.2.446.59.59,0,0,0,.47.137,3.783,3.783,0,0,0,2.873-3.14.586.586,0,0,0-.427-.713" fill="#1a1311"/>
      <path id="パス_426" data-name="パス 426" d="M36.96,6.245C33.048,2.334,26.97,0,20.7,0,9.287,0,0,7.537,0,16.8a10.066,10.066,0,0,0,1.631,5.564.9.9,0,0,0,1.477-1.012A8.24,8.24,0,0,1,1.791,16.8C1.791,8.525,10.276,1.79,20.7,1.79c5.8,0,11.408,2.14,14.99,5.722A12.8,12.8,0,0,1,39.616,16.7c0,7.171-6.968,14.432-20.281,14.432-3.379,0-6.326-1.01-8.086-2.771a5.818,5.818,0,0,1-1.224-1.745l.134.081a1.089,1.089,0,0,0,.8-.208,7.455,7.455,0,0,0,2.048-4.094c.175-1.584-2.082-2.127-1.763-5.044.14-1.276,2-5.377,3.475-6.565a4.166,4.166,0,0,1,3.263-.668c1.818.2,3.277-3.381,3.427-4.745.081-.748-1.151-1.684-3.177-1.9a5.3,5.3,0,0,0-3.789,1.277C11.836,6.789,6.826,16.259,6.33,20.819a5.7,5.7,0,0,0,1.45,4.469l.055.031a7.13,7.13,0,0,0,2.147,4.307c2.125,2.125,5.445,3.3,9.353,3.3,6.547,0,12.157-1.7,16.221-4.921a14.38,14.38,0,0,0,5.85-11.3A14.563,14.563,0,0,0,36.96,6.245" fill="#1a1311"/>
    </g>
  </g>
</svg>
