<svg xmlns="http://www.w3.org/2000/svg" xmlns:xlink="http://www.w3.org/1999/xlink" width="39.651" height="37.741" viewBox="0 0 39.651 37.741">
  <defs>
    <clipPath id="clip-path">
      <rect id="長方形_472" data-name="長方形 472" width="39.651" height="37.741" fill="none"/>
    </clipPath>
  </defs>
  <g id="火災保険" clip-path="url(#clip-path)">
    <path id="パス_242" data-name="パス 242" d="M14.1,2.075a8.365,8.365,0,0,0,.244,3.668c.817,2.885,2.775,5.019,4.668,7.083a26.78,26.78,0,0,1,3.3,4.107.639.639,0,0,0,1.1-.66,27.739,27.739,0,0,0-3.454-4.311c-1.875-2.044-3.645-3.974-4.38-6.567A6.343,6.343,0,0,1,15.789.918a.639.639,0,0,0-.881-.841C10.652,2.393,6.471,7.056,7.5,13.2a17.632,17.632,0,0,0,.852,2.926,9.133,9.133,0,0,1,.822,4.661,3.434,3.434,0,0,1-1.7,2.338,2.473,2.473,0,0,1-2.179.14c-1.768-.731-1.573-3.225-1.223-4.442A.639.639,0,0,0,3,18.206,11.478,11.478,0,0,0,.039,26.975a11.69,11.69,0,0,0,4.4,8.339A11.591,11.591,0,0,0,10.9,37.731h.032a.639.639,0,0,0,.031-1.277A10.3,10.3,0,0,1,5.219,34.3,10.657,10.657,0,0,1,2.58,20.929a3.85,3.85,0,0,0,2.233,3.514,3.752,3.752,0,0,0,3.277-.2,4.743,4.743,0,0,0,2.343-3.228A10.21,10.21,0,0,0,9.558,15.7a16.482,16.482,0,0,1-.8-2.71c-.806-4.8,2.02-8.621,5.335-10.91" transform="translate(0 0)" fill="#1864b8" stroke="#1864b8" stroke-width="0.12"/>
    <path id="パス_243" data-name="パス 243" d="M72.088,79.515H68.425V70.956H71.49a.639.639,0,0,0,.41-1.13L60.266,60.11a.64.64,0,0,0-.82,0L47.813,69.826a.639.639,0,0,0,.41,1.13h3.065v8.566L46.7,79.515h0a.639.639,0,0,0,0,1.278l5.229.009h0a.639.639,0,0,0,.639-.639V70.317a.639.639,0,0,0-.639-.639H49.985l9.871-8.245,9.871,8.245H67.786a.639.639,0,0,0-.639.639v9.2H56.418a.639.639,0,0,0,0,1.278H67.7a.441.441,0,0,0,.175,0h4.215a.639.639,0,1,0,0-1.278" transform="translate(-33.077 -43.061)" fill="#1864b8" stroke="#1864b8" stroke-width="0.12"/>
    <path id="パス_244" data-name="パス 244" d="M89.486,99.358a.639.639,0,0,0,.639-.639V95.356a.639.639,0,0,0-.639-.639h-5.2a.639.639,0,0,0-.639.639v3.363a.639.639,0,0,0,.639.639ZM84.927,96h3.919V98.08H84.927Z" transform="translate(-60.071 -68.02)" fill="#1864b8" stroke="#1864b8" stroke-width="0.12"/>
  </g>
</svg>
