<svg xmlns="http://www.w3.org/2000/svg" xmlns:xlink="http://www.w3.org/1999/xlink" width="34.227" height="33.562" viewBox="0 0 34.227 33.562">
  <defs>
    <clipPath id="clip-path">
      <rect id="長方形_412" data-name="長方形 412" width="34.227" height="33.562" fill="none"/>
    </clipPath>
  </defs>
  <g id="海外旅行" clip-path="url(#clip-path)">
    <path id="パス_195" data-name="パス 195" d="M12.364,28.162a2.817,2.817,0,0,1,.216-1.448A16.177,16.177,0,0,1,10.3,24h3.854v1.059a3.194,3.194,0,0,1,1.469-.359,3.152,3.152,0,0,1,.333.018V24h2.357l1.547-1.8h-3.9V19.262l-1.322-.92a3.34,3.34,0,0,1-.48-.407V22.2h-4.9A15.933,15.933,0,0,1,7.61,15.955H13.2a3.392,3.392,0,0,1,.256-1.8H7.61a15.912,15.912,0,0,1,1.876-6.69h4.667v5.619a3.384,3.384,0,0,1,1.8-.976V7.463h4.667a15.906,15.906,0,0,1,1.868,6.572L25.8,15.276l.436-.508L26.3,14.7c.171-.171.375-.356.606-.548H24.3a17.8,17.8,0,0,0-1.387-6.08c-.085-.2-.176-.405-.272-.61h3.266a13.184,13.184,0,0,1,2.269,5.763,12.15,12.15,0,0,1,1.682-.907A15.065,15.065,0,0,0,16.638.082a15.213,15.213,0,0,0-3.166,0A15.057,15.057,0,0,0,0,15.054a15.056,15.056,0,0,0,13.367,14.96,2.825,2.825,0,0,1-1-1.852m12.029-22.5H21.674a17.989,17.989,0,0,0-2.522-3.21,13.271,13.271,0,0,1,5.241,3.21m-8.437-3.59A16.2,16.2,0,0,1,19.5,5.661H15.956Zm-1.8,0v3.59H10.61a16.2,16.2,0,0,1,3.544-3.59m-3.2.38a17.994,17.994,0,0,0-2.522,3.21H5.717a13.269,13.269,0,0,1,5.241-3.21M4.2,7.463H7.464c-.1.2-.187.409-.272.61a17.8,17.8,0,0,0-1.387,6.08H1.834A13.184,13.184,0,0,1,4.2,7.463M3.9,22.2a13.213,13.213,0,0,1-2.064-6.243H5.806a17.8,17.8,0,0,0,1.387,6.08l.07.162ZM5.287,24H8.17a17.956,17.956,0,0,0,2.788,3.657A13.227,13.227,0,0,1,5.287,24" transform="translate(0 0.001)" fill="#f3a62e"/>
    <path id="パス_196" data-name="パス 196" d="M222.16,226.3a.987.987,0,0,1-.838-.476l-1.058-1.7-.639.329a1.4,1.4,0,0,1-.639.176.862.862,0,0,1-.746-.405,1.081,1.081,0,0,1,.049-1.108l.329-.639-1.7-1.058a.98.98,0,0,1-.178-1.545l.219-.219a1.3,1.3,0,0,1,.9-.36,1.194,1.194,0,0,1,.451.085l1.793.728,4.856-5.659-7.031-4.891a1.6,1.6,0,0,1-.523-1.949l.054-.115a1.5,1.5,0,0,1,1.361-.855,1.453,1.453,0,0,1,.512.092l9.267,3.476,1.236-1.44.019-.019c1.038-1.038,3.326-2.477,4.92-2.477a1.678,1.678,0,0,1,1.237.454c.618.618.6,1.722-.048,3.193a10.561,10.561,0,0,1-1.975,2.964l-.019.019-1.44,1.236,3.476,9.268a1.5,1.5,0,0,1-.763,1.873l-.114.054a1.509,1.509,0,0,1-.645.141h0a1.6,1.6,0,0,1-1.3-.664l-4.891-7.031-5.659,4.856.728,1.793a1.3,1.3,0,0,1-.275,1.356l-.219.219a1,1,0,0,1-.706.3" transform="translate(-202.238 -192.738)" fill="#f3a62e"/>
  </g>
</svg>
