<svg xmlns="http://www.w3.org/2000/svg" xmlns:xlink="http://www.w3.org/1999/xlink" width="90" height="77" viewBox="0 0 90 77">
  <defs>
    <clipPath id="clip-path">
      <rect id="長方形_1001" data-name="長方形 1001" width="90" height="77" transform="translate(1392 412)" fill="none" stroke="#707070" stroke-width="1"/>
    </clipPath>
    <clipPath id="clip-path-2">
      <rect id="長方形_408" data-name="長方形 408" width="70.338" height="49.446" fill="none"/>
    </clipPath>
  </defs>
  <g id="自転車" transform="translate(-1392 -412)" clip-path="url(#clip-path)">
    <g id="自転車-2" data-name="自転車" transform="translate(1402 434.782)">
      <g id="グループ_452" data-name="グループ 452" transform="translate(0 0)" clip-path="url(#clip-path-2)">
        <path id="パス_183" data-name="パス 183" d="M55.023,18.815a15.278,15.278,0,0,0-4.02.552l-2.766-6.981H24.2l2.013-6.167A4.087,4.087,0,0,1,30.1,3.4h5.256V0H30.1a7.49,7.49,0,0,0-7.12,5.163l-4.56,13.968A15.4,15.4,0,1,0,21.654,20.2l1.44-4.41H45.925l1.91,4.82a15.311,15.311,0,1,0,7.188-1.795M22.937,26.509A11.011,11.011,0,1,1,17,23.5L13.7,33.6l3.235,1.057,3.3-10.112a10.879,10.879,0,0,1,2.7,1.962M62.644,41.752A10.778,10.778,0,0,1,47.4,26.509a10.9,10.9,0,0,1,2.123-1.636l3.916,9.885L56.6,33.5l-3.919-9.89a10.776,10.776,0,0,1,9.958,18.139" transform="translate(0 0)" fill="#009e96"/>
        <path id="パス_184" data-name="パス 184" d="M88.292,15.593l1.323-4.065h-12.2l1.417,4.065Z" transform="translate(-34.876 -5.193)" fill="#009e96"/>
      </g>
    </g>
  </g>
</svg>
