<svg xmlns="http://www.w3.org/2000/svg" xmlns:xlink="http://www.w3.org/1999/xlink" width="58" height="40" viewBox="0 0 58 40">
  <defs>
    <clipPath id="clip-path">
      <rect id="長方形_896" data-name="長方形 896" width="58" height="40" transform="translate(380 170)" fill="#fff"/>
    </clipPath>
    <clipPath id="clip-path-2">
      <rect id="長方形_416" data-name="長方形 416" width="25.865" height="31.439" fill="none"/>
    </clipPath>
  </defs>
  <g id="火災保険_地震保険" data-name="火災保険・地震保険" transform="translate(-380 -170)" clip-path="url(#clip-path)">
    <g id="火災地震" transform="translate(-469.768 -250.517)">
      <g id="グループ_469" data-name="グループ 469" transform="translate(849.768 424.517)">
        <g id="グループ_468" data-name="グループ 468" clip-path="url(#clip-path-2)">
          <path id="パス_206" data-name="パス 206" d="M24.59,10.035s-.873,3.491-2.368,3.491c-2.092,0-2.119-2.743.125-4.738C25.031,6.4,24.34.562,19.915,0c2.057,2.8.049,6.951-2.555,5.05-1.393-1.019.186-2.743,1.122-3.117-3-1.833-5.163,1.3-4.2,4.344.686,2.17-.32,2.73-1.123,2.889-1.492.3-2.4-1.13-2.592-2.065C7.93,8.626,8.071,11.759,8.778,13.277L0,22.048l1.786,1.784L12.058,13.568,22.321,23.832l1.786-1.784L21.962,19.9c6.821-3.217,2.627-9.869,2.627-9.869" fill="#fff"/>
          <path id="パス_207" data-name="パス 207" d="M15.106,69.493v8.079h6.365V72.137h3.956v5.436h6.365V69.493l-8.339-8.339Z" transform="translate(-11.396 -46.133)" fill="#fff"/>
        </g>
      </g>
      <path id="パス_208" data-name="パス 208" d="M11.246,0,0,11.237,1.666,12.9l1.879-1.877v8.662H9.319l2.149-3.964L7.846,14.5l4.208-7.03-1.278,5.965,3.568,1.279L12.9,19.686h6.04V11.023L20.818,12.9l1.666-1.665Z" transform="translate(884.862 436.269)" fill="#fff"/>
    </g>
  </g>
</svg>
