<svg id="グループ生命" xmlns="http://www.w3.org/2000/svg" xmlns:xlink="http://www.w3.org/1999/xlink" width="37.868" height="28.348" viewBox="0 0 37.868 28.348">
  <defs>
    <clipPath id="clip-path">
      <rect id="長方形_418" data-name="長方形 418" width="37.868" height="28.348" fill="none"/>
    </clipPath>
  </defs>
  <g id="グループ_473" data-name="グループ 473" clip-path="url(#clip-path)">
    <path id="パス_212" data-name="パス 212" d="M160.484,4.746A4.875,4.875,0,0,0,155.5,0a5.006,5.006,0,0,0-4.556,2.823A5.006,5.006,0,0,0,146.389,0,4.875,4.875,0,0,0,141.4,4.746,4.879,4.879,0,0,0,143,8.234c.737.683,7.59,6.887,7.659,6.95a.427.427,0,0,0,.574,0c.069-.063,6.922-6.267,7.659-6.95a4.879,4.879,0,0,0,1.594-3.488" transform="translate(-132.011)" fill="#f3a62e"/>
    <path id="パス_213" data-name="パス 213" d="M15.346,41.225l0-.008h0a1.924,1.924,0,0,0-.558-.943L8.438,34.394a1.881,1.881,0,0,0-2.679.108,1.933,1.933,0,0,0,.122,2.708l4.211,3.9-.533,1.031-4.43-4.1a3.07,3.07,0,0,1-.194-4.3,2.987,2.987,0,0,1,.621-.521l-1.822-7a1.907,1.907,0,0,0-2.305-1.4A1.907,1.907,0,0,0,.059,27.14L4.216,43.108A1.923,1.923,0,0,0,5.1,44.3l5.385,4.018.791,3.15h6.217L15.374,41.358q-.012-.067-.028-.133" transform="translate(0 -23.117)" fill="#f3a62e"/>
    <path id="パス_214" data-name="パス 214" d="M322.752,24.819a1.907,1.907,0,0,0-2.3,1.4l-1.822,7a2.982,2.982,0,0,1,.621.521,3.07,3.07,0,0,1-.194,4.3l-4.43,4.1-.533-1.031,4.211-3.9a1.933,1.933,0,0,0,.122-2.708,1.881,1.881,0,0,0-2.679-.108L309.4,40.274a1.926,1.926,0,0,0-.558.943h0l0,.008c-.011.044-.02.088-.028.133l-2.119,10.106h6.217l.791-3.15,5.385-4.018a1.923,1.923,0,0,0,.884-1.189l4.157-15.968a1.907,1.907,0,0,0-1.37-2.322" transform="translate(-286.313 -23.117)" fill="#f3a62e"/>
  </g>
</svg>
