<svg xmlns="http://www.w3.org/2000/svg" xmlns:xlink="http://www.w3.org/1999/xlink" width="38.251" height="26.89" viewBox="0 0 38.251 26.89">
  <defs>
    <clipPath id="clip-path">
      <rect id="長方形_408" data-name="長方形 408" width="38.251" height="26.89" fill="none"/>
    </clipPath>
  </defs>
  <g id="自転車" transform="translate(0 0)">
    <g id="グループ_452" data-name="グループ 452" transform="translate(0 0)" clip-path="url(#clip-path)">
      <path id="パス_183" data-name="パス 183" d="M29.922,10.232a8.309,8.309,0,0,0-2.186.3l-1.5-3.8H13.163l1.095-3.354A2.223,2.223,0,0,1,16.37,1.851h2.858V0H16.37A4.073,4.073,0,0,0,12.5,2.808l-2.48,7.6a8.373,8.373,0,1,0,1.757.581l.783-2.4H24.975l1.038,2.621a8.326,8.326,0,1,0,3.909-.976M12.473,14.416a5.988,5.988,0,1,1-3.23-1.638l-1.794,5.5,1.759.575,1.8-5.5a5.916,5.916,0,0,1,1.47,1.067m21.593,8.289a5.861,5.861,0,0,1-8.289-8.289,5.928,5.928,0,0,1,1.154-.89l2.13,5.375,1.721-.682-2.131-5.378a5.86,5.86,0,0,1,5.415,9.864" transform="translate(0 0)" fill="#3a92f4"/>
      <path id="パス_184" data-name="パス 184" d="M83.332,13.739l.719-2.21H77.419l.771,2.21Z" transform="translate(-54.284 -8.083)" fill="#3a92f4"/>
    </g>
  </g>
</svg>
