<svg id="グループ_396" data-name="グループ 396" xmlns="http://www.w3.org/2000/svg" xmlns:xlink="http://www.w3.org/1999/xlink" width="43.024" height="39.305" viewBox="0 0 43.024 39.305">
  <defs>
    <clipPath id="clip-path">
      <rect id="長方形_391" data-name="長方形 391" width="43.024" height="39.305" fill="none"/>
    </clipPath>
  </defs>
  <g id="グループ_395" data-name="グループ 395" clip-path="url(#clip-path)">
    <path id="パス_126" data-name="パス 126" d="M76.174,11.794H80.21V15.83a1.786,1.786,0,0,0,1.783,1.784H84.4a1.786,1.786,0,0,0,1.783-1.784V11.794h4.036A1.786,1.786,0,0,0,92,10.011V7.6a1.786,1.786,0,0,0-1.783-1.784H86.185V1.784A1.786,1.786,0,0,0,84.4,0H81.993A1.786,1.786,0,0,0,80.21,1.784V5.819H76.174A1.786,1.786,0,0,0,74.391,7.6v2.408a1.786,1.786,0,0,0,1.783,1.783M75.632,7.6a.543.543,0,0,1,.543-.543h4.656a.62.62,0,0,0,.62-.62V1.784a.544.544,0,0,1,.543-.543H84.4a.544.544,0,0,1,.543.543V6.44a.62.62,0,0,0,.62.62h4.656a.543.543,0,0,1,.543.543v2.408a.544.544,0,0,1-.543.543H85.565a.62.62,0,0,0-.62.62V15.83a.544.544,0,0,1-.543.543H81.993a.544.544,0,0,1-.543-.543V11.174a.62.62,0,0,0-.62-.62H76.174a.544.544,0,0,1-.543-.543Z" transform="translate(-54.04)" fill="#1864b8" stroke="#1864b8" stroke-width="0.12"/>
    <path id="パス_127" data-name="パス 127" d="M42.23,71.816c-.785-.472-1.845-.213-2.835.695-.211.194-.418.388-.622.58a9.322,9.322,0,0,1-2.786,2.084,1.836,1.836,0,0,1-.526.108.57.57,0,1,0,.069,1.138,2.973,2.973,0,0,0,.845-.174,10.045,10.045,0,0,0,3.18-2.325c.2-.188.4-.38.612-.57.7-.644,1.223-.71,1.476-.558a.6.6,0,0,1,.224.652,31.328,31.328,0,0,1-4.233,4.593A52.052,52.052,0,0,1,27.9,81.265c-1.7.282-5.907-.264-8.317-.7a11.168,11.168,0,0,0-2.61-.127.577.577,0,0,0-.107.017L13.964,75.81a15.63,15.63,0,0,1,3.1-1.56,10.35,10.35,0,0,1,3.606-.338c.6.068,1.27.168,1.916.264.808.12,1.57.234,2.179.284.662.055,2.556-.022,4.226-.091,1.041-.043,2.116-.087,2.352-.071,1.18.077,1.915.463,2.183,1.146a.563.563,0,0,0,.178.237.566.566,0,0,0-.283.156,2.1,2.1,0,0,1-.971.305,17.848,17.848,0,0,1-2.123.215c-.153,0-.39.007-.67.011a23.221,23.221,0,0,0-2.922.125,15.181,15.181,0,0,0-3.073,1.264l-.078.039a.57.57,0,0,0,.129,1.085.6.6,0,0,0,.1.009.771.771,0,0,0,.362-.116,13.661,13.661,0,0,1,2.813-1.17c.274-.061,1.962-.086,2.683-.1.285,0,.527-.008.683-.011a19.2,19.2,0,0,0,2.278-.229,2.871,2.871,0,0,0,1.6-.632.57.57,0,0,0-.008-.806.53.53,0,0,0-.048-.039.583.583,0,0,0,.086-.025.57.57,0,0,0,.322-.739c-.305-.777-1.1-1.732-3.17-1.868-.281-.019-1.082.013-2.473.069-1.556.063-3.494.142-4.086.094-.571-.047-1.316-.158-2.1-.276-.655-.1-1.332-.2-1.955-.269a11.319,11.319,0,0,0-3.992.361,15.575,15.575,0,0,0-3.443,1.7l-.137-.219a1.13,1.13,0,0,0-1.573-.35L11,74.681a.57.57,0,0,0,.6.968l.657-.421,4.788,7.637-1.443.851L9.7,73.883a.57.57,0,0,0-.808-.179c-.027.018-2.754,1.85-8.612,5.306a.57.57,0,0,0,.579.982c4.471-2.637,7.132-4.337,8.169-5.012l5.6,9.336C13.273,85.1,9.3,87.4,4.384,90.242a.57.57,0,1,0,.572.987C11.054,87.7,15.7,85.013,15.7,85.013a.572.572,0,0,0,.208-.213.56.56,0,0,0,.216-.07l1.5-.882a1.131,1.131,0,0,0,.384-1.574l-.447-.715a9.392,9.392,0,0,1,1.824.128,48.875,48.875,0,0,0,7.306.793,8.937,8.937,0,0,0,1.4-.091A52.5,52.5,0,0,0,38.251,79a27.1,27.1,0,0,0,4.709-5.221,1.738,1.738,0,0,0-.73-1.96" transform="translate(0 -52.001)" fill="#1864b8" stroke="#1864b8" stroke-width="0.12"/>
  </g>
</svg>
