<svg xmlns="http://www.w3.org/2000/svg" xmlns:xlink="http://www.w3.org/1999/xlink" width="81" height="65" viewBox="0 0 81 65">
  <defs>
    <clipPath id="clip-path">
      <rect id="長方形_909" data-name="長方形 909" width="81" height="65" transform="translate(921 1722)" fill="#fff"/>
    </clipPath>
  </defs>
  <g id="マスクグループ_91" data-name="マスクグループ 91" transform="translate(-921 -1722)" clip-path="url(#clip-path)">
    <g id="グループ_1332" data-name="グループ 1332" transform="translate(-520.024 658.897)">
      <g id="グループ_1330" data-name="グループ 1330">
        <path id="パス_354" data-name="パス 354" d="M1467.912,1068.936a5.831,5.831,0,1,1-5.83-5.833A5.837,5.837,0,0,1,1467.912,1068.936Z" fill="#1864b8"/>
        <path id="パス_355" data-name="パス 355" d="M1462.082,1074.77a5.8,5.8,0,0,1-2.7-.662,26.609,26.609,0,0,1,5.4,0A5.816,5.816,0,0,1,1462.082,1074.77Z" fill="#1864b8"/>
        <path id="パス_356" data-name="パス 356" d="M1477.637,1099.311c-1.147.322-2.444-.163-3.175-1.912l-5.5-15.778.12,19.146-.1,23.755a2.934,2.934,0,1,1-5.867.116l-1.036-23.733h0l-1.035,23.733a2.935,2.935,0,1,1-5.868-.116l-.1-23.755.116-19.146-5.5,15.778c-.73,1.749-2.028,2.234-3.175,1.912-1.164-.331-1.662-1.693-1.327-3.355l4.175-15.061c.8-2.7,1.053-3.664,3.991-5.189a13.365,13.365,0,0,1,2.779-1.027,8.254,8.254,0,0,0,11.878,0,13.343,13.343,0,0,1,2.779,1.027c2.938,1.525,3.192,2.492,3.995,5.189l4.176,15.061C1479.3,1097.618,1478.8,1098.98,1477.637,1099.311Z" fill="#1864b8"/>
        <path id="パス_357" data-name="パス 357" d="M1443.024,1103.654a3.844,3.844,0,1,1,7.642,0v22.7" fill="none" stroke="#1864b8" stroke-linecap="round" stroke-width="3.653"/>
      </g>
      <g id="グループ_1331" data-name="グループ 1331">
        <path id="パス_358" data-name="パス 358" d="M1509.386,1068.936a5.831,5.831,0,1,1-5.829-5.833A5.837,5.837,0,0,1,1509.386,1068.936Z" fill="#1864b8"/>
        <path id="パス_359" data-name="パス 359" d="M1503.557,1074.77a5.81,5.81,0,0,1-2.7-.662,26.609,26.609,0,0,1,5.4,0A5.824,5.824,0,0,1,1503.557,1074.77Z" fill="#008129"/>
        <path id="パス_360" data-name="パス 360" d="M1519.111,1099.311c-1.147.322-2.444-.163-3.174-1.912l-5.5-15.778,4.068,33.576h-3.986l-.06,9.325a2.935,2.935,0,1,1-5.868.12l-.653-9.445h-.769l-.653,9.445a2.935,2.935,0,1,1-5.868-.12l-.06-9.325h-3.982l4.064-33.576-5.5,15.778c-.73,1.749-2.027,2.234-3.17,1.912-1.169-.331-1.667-1.693-1.332-3.355l4.176-15.061c.8-2.7,1.052-3.664,3.99-5.189a13.376,13.376,0,0,1,2.78-1.027,8.253,8.253,0,0,0,11.877,0,13.343,13.343,0,0,1,2.779,1.027c2.939,1.525,3.192,2.492,3.995,5.189l4.176,15.061C1520.774,1097.618,1520.275,1098.98,1519.111,1099.311Z" fill="#1864b8"/>
        <path id="パス_361" data-name="パス 361" d="M1481.88,1103.654a3.844,3.844,0,1,1,7.642,0v22.7" fill="none" stroke="#1864b8" stroke-linecap="round" stroke-width="3.653"/>
      </g>
    </g>
  </g>
</svg>
