<svg xmlns="http://www.w3.org/2000/svg" xmlns:xlink="http://www.w3.org/1999/xlink" width="81" height="65" viewBox="0 0 81 65">
  <defs>
    <clipPath id="clip-path">
      <rect id="長方形_908" data-name="長方形 908" width="81" height="65" transform="translate(605 1722)" fill="#fff"/>
    </clipPath>
  </defs>
  <g id="マスクグループ_90" data-name="マスクグループ 90" transform="translate(-605 -1722)" clip-path="url(#clip-path)">
    <g id="グループ_1329" data-name="グループ 1329" transform="translate(524.344 1582.414)">
      <g id="グループ_1326" data-name="グループ 1326" transform="translate(80.656 148.921)">
        <path id="パス_348" data-name="パス 348" d="M181.849,196.988a10.322,10.322,0,1,1-10.322-10.322A10.322,10.322,0,0,1,181.849,196.988Z" transform="translate(-156.671 -186.666)" fill="#125095"/>
        <path id="パス_349" data-name="パス 349" d="M102.487,599.013a8.6,8.6,0,0,1,3.683-6.808c-.177-.1-.359-.192-.548-.284a25.848,25.848,0,0,0-20.218,0c-3.061,1.491-4.747,3.6-4.747,5.934v13.778a1.472,1.472,0,0,0,1.471,1.471h20.36Z" transform="translate(-80.656 -567.161)" fill="#125095"/>
      </g>
      <g id="グループ_1327" data-name="グループ 1327" transform="translate(136.142 148.921)">
        <path id="パス_350" data-name="パス 350" d="M1092.781,196.988a10.322,10.322,0,1,1-10.322-10.322A10.322,10.322,0,0,1,1092.781,196.988Z" transform="translate(-1071.802 -186.666)" fill="#125095"/>
        <path id="パス_351" data-name="パス 351" d="M1086.942,591.921a25.849,25.849,0,0,0-20.219,0c-.189.092-.37.187-.548.284a8.6,8.6,0,0,1,3.684,6.808V613.1h20.359a1.472,1.472,0,0,0,1.471-1.471V597.854C1091.689,595.519,1090,593.412,1086.942,591.921Z" transform="translate(-1066.175 -567.161)" fill="#125095"/>
      </g>
      <g id="グループ_1328" data-name="グループ 1328" transform="translate(104.649 146.669)">
        <path id="パス_352" data-name="パス 352" d="M619.237,158.138a11.469,11.469,0,1,1-11.469-11.469A11.468,11.468,0,0,1,619.237,158.138Z" transform="translate(-591.261 -146.669)" fill="#1864b8"/>
        <path id="パス_353" data-name="パス 353" d="M534.546,596.951a28.721,28.721,0,0,0-22.465,0c-3.4,1.657-5.275,4-5.275,6.593v15.309a1.636,1.636,0,0,0,1.634,1.635h29.746a1.636,1.636,0,0,0,1.634-1.635V603.543C539.821,600.949,537.947,598.608,534.546,596.951Z" transform="translate(-506.806 -569.44)" fill="#1864b8"/>
      </g>
    </g>
  </g>
</svg>
