<svg xmlns="http://www.w3.org/2000/svg" xmlns:xlink="http://www.w3.org/1999/xlink" width="81" height="65" viewBox="0 0 81 65">
  <defs>
    <clipPath id="clip-path">
      <rect id="長方形_910" data-name="長方形 910" width="81" height="65" transform="translate(1238 1720)" fill="#fff"/>
    </clipPath>
  </defs>
  <g id="マスクグループ_92" data-name="マスクグループ 92" transform="translate(-1238 -1720)" clip-path="url(#clip-path)">
    <g id="グループ_1325" data-name="グループ 1325" transform="translate(1114 1349.56)">
      <path id="パス_345" data-name="パス 345" d="M152.1,403.484v32.7h58.629v-32.7Zm3.382,21.894v-11.1a6.981,6.981,0,0,0,6.494-6.962c0-.153-.023-.3-.032-.453h13a16.981,16.981,0,0,0,0,25.933h-13c.01-.152.032-.3.032-.454A6.987,6.987,0,0,0,155.479,425.378Zm32.454-8.992v2.6h-4.291l-.462.716v1.718h4.752V424h-4.752v3.54h-2.952V424h-4.752v-2.58h4.752V419.7l-.462-.717h-4.291v-2.6H178.1L175.919,413h2.833l2.951,4.593L184.658,413h2.833l-2.174,3.387Zm5.968,3.447a16.029,16.029,0,0,0-6.017-12.966h12.992c-.01.152-.033.3-.033.453a6.986,6.986,0,0,0,6.5,6.962v11.1a6.992,6.992,0,0,0-6.5,6.968c0,.154.023.3.033.454H187.885A16.037,16.037,0,0,0,193.9,419.834Z" transform="translate(-10.5 -10.441)" fill="#1864b8"/>
      <path id="パス_346" data-name="パス 346" d="M196.927,391.511H139.989v32.134h3.382v-28.75h53.555Z" transform="translate(-5.224 -5.224)" fill="#125095"/>
      <path id="パス_347" data-name="パス 347" d="M181.556,379.523H128V409.4h3.382v-26.5h50.173Z" transform="translate(0 0)" fill="#125095"/>
    </g>
  </g>
</svg>
